<?xml version="1.0" standalone="yes"?>

<svg version="1.1" viewBox="0.0 0.0 955.9842519685039 128.4698162729659" fill="none" stroke="none" stroke-linecap="square" stroke-miterlimit="10" xmlns="http://www.w3.org/2000/svg" xmlns:xlink="http://www.w3.org/1999/xlink"><clipPath id="p.0"><path d="m0 0l955.98425 0l0 128.46982l-955.98425 0l0 -128.46982z" clip-rule="nonzero"></path></clipPath><g clip-path="url(#p.0)"><path fill="#000000" fill-opacity="0.0" d="m0 0l955.98425 0l0 128.46982l-955.98425 0z" fill-rule="nonzero"></path><path fill="#f1c232" d="m19.503937 16.059055l446.17322 0l0 96.34645l-446.17322 0z" fill-rule="nonzero"></path><path fill="#000000" d="m164.9027 57.871033l2.25 0l0 13.28125l-2.4375 0l-7.53125 -9.6875l0 9.6875l-2.234375 0l0 -13.28125l2.234375 0l7.71875 9.921875l0 -9.921875zm7.706009 10.609375q0.90625 0.921875 2.28125 0.921875q1.390625 0 2.296875 -0.921875q0.90625 -0.921875 0.90625 -2.375q0 -1.46875 -0.90625 -2.390625q-0.90625 -0.921875 -2.296875 -0.921875q-1.375 0 -2.28125 0.921875q-0.90625 0.921875 -0.90625 2.390625q0 1.453125 0.90625 2.375zm6.078125 1.3125q-1.515625 1.515625 -3.796875 1.515625q-2.28125 0 -3.796875 -1.515625q-1.515625 -1.515625 -1.515625 -3.6875q0 -2.1875 1.515625 -3.703125q1.515625 -1.515625 3.796875 -1.515625q2.28125 0 3.796875 1.515625q1.53125 1.515625 1.53125 3.703125q0 2.171875 -1.53125 3.6875zm13.697571 -11.921875q3.015625 0 4.40625 1.15625q1.390625 1.15625 1.390625 3.578125q0 2.40625 -1.421875 3.53125q-1.421875 1.125 -4.34375 1.125l-2.359375 0l0 3.890625l-2.234375 0l0 -13.28125l4.5625 0zm0.28125 7.359375q1.859375 0 2.53125 -0.71875q0.6875 -0.71875 0.6875 -2.09375q0 -1.375 -0.859375 -1.9375q-0.859375 -0.578125 -2.6875 -0.578125l-2.28125 0l0 5.328125l2.609375 0zm15.8077545 5.921875l-1.9375 0l0 -1.34375q-1.265625 1.5 -3.375 1.5q-1.578125 0 -2.609375 -0.890625q-1.03125 -0.90625 -1.03125 -2.390625q0 -1.484375 1.09375 -2.21875q1.109375 -0.75 2.984375 -0.75l2.765625 0l0 -0.390625q0 -2.015625 -2.25 -2.015625q-1.40625 0 -2.921875 1.03125l-0.953125 -1.328125q1.84375 -1.46875 4.1875 -1.46875q1.78125 0 2.90625 0.90625q1.140625 0.90625 1.140625 2.84375l0 6.515625zm-2.140625 -3.765625l0 -0.84375l-2.390625 0q-2.296875 0 -2.296875 1.4375q0 0.734375 0.5625 1.125q0.578125 0.390625 1.59375 0.390625q1.015625 0 1.765625 -0.5625q0.765625 -0.578125 0.765625 -1.546875zm12.091843 0.75q0 1.4375 -1.046875 2.3125q-1.03125 0.859375 -2.671875 0.859375q-1.109375 0 -2.296875 -0.390625q-1.1875 -0.40625 -2.09375 -1.140625l1.03125 -1.640625q1.765625 1.328125 3.421875 1.328125q0.71875 0 1.125 -0.328125q0.421875 -0.34375 0.421875 -0.859375q0 -0.75 -2.015625 -1.359375q-0.140625 -0.0625 -0.21875 -0.078125q-3.15625 -0.859375 -3.15625 -2.84375q0 -1.40625 1.09375 -2.25q1.09375 -0.859375 2.84375 -0.859375q1.75 0 3.296875 1.03125l-0.796875 1.578125q-1.234375 -0.8125 -2.671875 -0.8125q-0.765625 0 -1.25 0.28125q-0.46875 0.265625 -0.46875 0.8125q0 0.5 0.5 0.71875q0.34375 0.171875 0.953125 0.328125q0.625 0.15625 1.09375 0.3125q0.484375 0.140625 0.921875 0.34375q0.453125 0.1875 0.96875 0.515625q1.015625 0.6875 1.015625 2.140625zm9.440063 0q0 1.4375 -1.046875 2.3125q-1.03125 0.859375 -2.671875 0.859375q-1.109375 0 -2.296875 -0.390625q-1.1875 -0.40625 -2.09375 -1.140625l1.03125 -1.640625q1.765625 1.328125 3.421875 1.328125q0.71875 0 1.125 -0.328125q0.421875 -0.34375 0.421875 -0.859375q0 -0.75 -2.015625 -1.359375q-0.140625 -0.0625 -0.21875 -0.078125q-3.15625 -0.859375 -3.15625 -2.84375q0 -1.40625 1.09375 -2.25q1.09375 -0.859375 2.84375 -0.859375q1.75 0 3.296875 1.03125l-0.796875 1.578125q-1.234375 -0.8125 -2.671875 -0.8125q-0.765625 0 -1.25 0.28125q-0.46875 0.265625 -0.46875 0.8125q0 0.5 0.5 0.71875q0.34375 0.171875 0.953125 0.328125q0.625 0.15625 1.09375 0.3125q0.484375 0.140625 0.921875 0.34375q0.453125 0.1875 0.96875 0.515625q1.015625 0.6875 1.015625 2.140625zm4.3775635 3.015625l-2.140625 0l0 -10.109375l2.140625 0l0 10.109375zm-2.0 -12.109375q-0.40625 -0.40625 -0.40625 -0.953125q0 -0.5625 0.40625 -0.953125q0.40625 -0.40625 0.953125 -0.40625q0.546875 0 0.9375 0.40625q0.40625 0.390625 0.40625 0.953125q0 0.546875 -0.40625 0.953125q-0.390625 0.390625 -0.9375 0.390625q-0.546875 0 -0.953125 -0.390625zm7.6586914 12.109375l-4.0625 -10.109375l2.203125 0l3.078125 7.640625l3.078125 -7.640625l2.203125 0l-4.0625 10.109375l-2.4375 0zm17.390121 -4.125l-7.921875 0q0.078125 1.109375 1.0 1.78125q0.9375 0.671875 2.140625 0.671875q1.90625 0 2.890625 -1.203125l1.21875 1.34375q-1.640625 1.6875 -4.265625 1.6875q-2.125 0 -3.625 -1.40625q-1.484375 -1.421875 -1.484375 -3.8125q0 -2.390625 1.515625 -3.796875q1.53125 -1.40625 3.59375 -1.40625q2.0625 0 3.5 1.25q1.4375 1.25 1.4375 3.421875l0 1.46875zm-7.921875 -1.671875l5.796875 0q0 -1.265625 -0.796875 -1.953125q-0.796875 -0.6875 -1.96875 -0.6875q-1.15625 0 -2.09375 0.71875q-0.9375 0.703125 -0.9375 1.921875zm15.469528 5.796875l0 -13.28125l2.234375 0l0 5.75l6.59375 0l0 -5.75l2.25 0l0 13.28125l-2.25 0l0 -5.4375l-6.59375 0l0 5.4375l-2.234375 0zm22.386536 0l-1.9375 0l0 -1.34375q-1.265625 1.5 -3.375 1.5q-1.578125 0 -2.609375 -0.890625q-1.03125 -0.90625 -1.03125 -2.390625q0 -1.484375 1.09375 -2.21875q1.109375 -0.75 2.984375 -0.75l2.765625 0l0 -0.390625q0 -2.015625 -2.25 -2.015625q-1.40625 0 -2.921875 1.03125l-0.953125 -1.328125q1.84375 -1.46875 4.1875 -1.46875q1.78125 0 2.90625 0.90625q1.140625 0.90625 1.140625 2.84375l0 6.515625zm-2.140625 -3.765625l0 -0.84375l-2.390625 0q-2.296875 0 -2.296875 1.4375q0 0.734375 0.5625 1.125q0.578125 0.390625 1.59375 0.390625q1.015625 0 1.765625 -0.5625q0.765625 -0.578125 0.765625 -1.546875zm10.310577 -6.5q2.03125 0 3.46875 1.40625q1.453125 1.40625 1.453125 3.75q0 2.328125 -1.4375 3.796875q-1.4375 1.46875 -3.34375 1.46875q-1.90625 0 -3.421875 -1.671875l0 5.203125l-2.140625 0l0 -13.796875l2.140625 0l0 1.765625q1.25 -1.921875 3.28125 -1.921875zm-3.328125 5.234375q0 1.4375 0.875 2.359375q0.875 0.921875 2.125 0.921875q1.265625 0 2.1875 -0.90625q0.9375 -0.921875 0.9375 -2.375q0 -1.453125 -0.921875 -2.40625q-0.90625 -0.953125 -2.1875 -0.953125q-1.265625 0 -2.140625 0.953125q-0.875 0.953125 -0.875 2.40625zm13.068268 -3.359375l0 5.125q0 0.71875 0.375 1.15625q0.390625 0.421875 1.0625 0.421875q0.6875 0 1.328125 -0.671875l0.875 1.5q-1.125 1.015625 -2.484375 1.015625q-1.359375 0 -2.328125 -0.9375q-0.953125 -0.953125 -0.953125 -2.546875l0 -5.0625l-1.265625 0l0 -1.71875l1.265625 0l0 -3.171875l2.125 0l0 3.171875l2.671875 0l0 1.71875l-2.671875 0zm7.313904 8.390625l-2.140625 0l0 -10.109375l2.140625 0l0 10.109375zm-2.0 -12.109375q-0.40625 -0.40625 -0.40625 -0.953125q0 -0.5625 0.40625 -0.953125q0.40625 -0.40625 0.953125 -0.40625q0.546875 0 0.9375 0.40625q0.40625 0.390625 0.40625 0.953125q0 0.546875 -0.40625 0.953125q-0.390625 0.390625 -0.9375 0.390625q-0.546875 0 -0.953125 -0.390625zm9.455566 12.265625q-2.109375 0 -3.625 -1.4375q-1.515625 -1.4375 -1.515625 -3.75q0 -2.328125 1.578125 -3.78125q1.59375 -1.453125 3.875 -1.453125q2.28125 0 3.859375 1.578125l-1.25 1.546875q-1.3125 -1.140625 -2.65625 -1.140625q-1.328125 0 -2.3125 0.890625q-0.96875 0.875 -0.96875 2.28125q0 1.390625 0.96875 2.359375q0.96875 0.96875 2.375 0.96875q1.421875 0 2.6875 -1.296875l1.25 1.375q-1.84375 1.859375 -4.265625 1.859375zm13.464783 -3.171875q0 1.4375 -1.046875 2.3125q-1.03125 0.859375 -2.671875 0.859375q-1.109375 0 -2.296875 -0.390625q-1.1875 -0.40625 -2.09375 -1.140625l1.03125 -1.640625q1.765625 1.328125 3.421875 1.328125q0.71875 0 1.125 -0.328125q0.421875 -0.34375 0.421875 -0.859375q0 -0.75 -2.015625 -1.359375q-0.140625 -0.0625 -0.21875 -0.078125q-3.15625 -0.859375 -3.15625 -2.84375q0 -1.40625 1.09375 -2.25q1.09375 -0.859375 2.84375 -0.859375q1.75 0 3.296875 1.03125l-0.796875 1.578125q-1.234375 -0.8125 -2.671875 -0.8125q-0.765625 0 -1.25 0.28125q-0.46875 0.265625 -0.46875 0.8125q0 0.5 0.5 0.71875q0.34375 0.171875 0.953125 0.328125q0.625 0.15625 1.09375 0.3125q0.484375 0.140625 0.921875 0.34375q0.453125 0.1875 0.96875 0.515625q1.015625 0.6875 1.015625 2.140625z" fill-rule="nonzero"></path><path fill="#6d9eeb" d="m497.73752 16.060368l446.17325 0l0 96.34645l-446.17325 0z" fill-rule="nonzero"></path><path fill="#000000" d="m654.1818 57.872345q3.015625 0 4.40625 1.15625q1.390625 1.15625 1.390625 3.578125q0 2.40625 -1.421875 3.53125q-1.421875 1.125 -4.34375 1.125l-2.359375 0l0 3.890625l-2.234375 0l0 -13.28125l4.5625 0zm0.28125 7.359375q1.859375 0 2.53125 -0.71875q0.6875 -0.71875 0.6875 -2.09375q0 -1.375 -0.859375 -1.9375q-0.859375 -0.578125 -2.6875 -0.578125l-2.28125 0l0 5.328125l2.609375 0zm15.807739 5.921875l-1.9375 0l0 -1.34375q-1.265625 1.5 -3.375 1.5q-1.578125 0 -2.609375 -0.890625q-1.03125 -0.90625 -1.03125 -2.390625q0 -1.484375 1.09375 -2.21875q1.109375 -0.75 2.984375 -0.75l2.765625 0l0 -0.390625q0 -2.015625 -2.25 -2.015625q-1.40625 0 -2.921875 1.03125l-0.953125 -1.328125q1.84375 -1.46875 4.1875 -1.46875q1.78125 0 2.90625 0.90625q1.140625 0.90625 1.140625 2.84375l0 6.515625zm-2.140625 -3.765625l0 -0.84375l-2.390625 0q-2.296875 0 -2.296875 1.4375q0 0.734375 0.5625 1.125q0.578125 0.390625 1.59375 0.390625q1.015625 0 1.765625 -0.5625q0.765625 -0.578125 0.765625 -1.546875zm12.091858 0.75q0 1.4375 -1.046875 2.3125q-1.03125 0.859375 -2.671875 0.859375q-1.109375 0 -2.296875 -0.390625q-1.1875 -0.40625 -2.09375 -1.140625l1.03125 -1.640625q1.765625 1.328125 3.421875 1.328125q0.71875 0 1.125 -0.328125q0.421875 -0.34375 0.421875 -0.859375q0 -0.75 -2.015625 -1.359375q-0.140625 -0.0625 -0.21875 -0.078125q-3.15625 -0.859375 -3.15625 -2.84375q0 -1.40625 1.09375 -2.25q1.09375 -0.859375 2.84375 -0.859375q1.75 0 3.296875 1.03125l-0.796875 1.578125q-1.234375 -0.8125 -2.671875 -0.8125q-0.765625 0 -1.25 0.28125q-0.46875 0.265625 -0.46875 0.8125q0 0.5 0.5 0.71875q0.34375 0.171875 0.953125 0.328125q0.625 0.15625 1.09375 0.3125q0.484375 0.140625 0.921875 0.34375q0.453125 0.1875 0.96875 0.515625q1.015625 0.6875 1.015625 2.140625zm9.440063 0q0 1.4375 -1.046875 2.3125q-1.03125 0.859375 -2.671875 0.859375q-1.109375 0 -2.296875 -0.390625q-1.1875 -0.40625 -2.09375 -1.140625l1.03125 -1.640625q1.765625 1.328125 3.421875 1.328125q0.71875 0 1.125 -0.328125q0.421875 -0.34375 0.421875 -0.859375q0 -0.75 -2.015625 -1.359375q-0.140625 -0.0625 -0.21875 -0.078125q-3.15625 -0.859375 -3.15625 -2.84375q0 -1.40625 1.09375 -2.25q1.09375 -0.859375 2.84375 -0.859375q1.75 0 3.296875 1.03125l-0.796875 1.578125q-1.234375 -0.8125 -2.671875 -0.8125q-0.765625 0 -1.25 0.28125q-0.46875 0.265625 -0.46875 0.8125q0 0.5 0.5 0.71875q0.34375 0.171875 0.953125 0.328125q0.625 0.15625 1.09375 0.3125q0.484375 0.140625 0.921875 0.34375q0.453125 0.1875 0.96875 0.515625q1.015625 0.6875 1.015625 2.140625zm4.3775635 3.015625l-2.140625 0l0 -10.109375l2.140625 0l0 10.109375zm-2.0 -12.109375q-0.40625 -0.40625 -0.40625 -0.953125q0 -0.5625 0.40625 -0.953125q0.40625 -0.40625 0.953125 -0.40625q0.546875 0 0.9375 0.40625q0.40625 0.390625 0.40625 0.953125q0 0.546875 -0.40625 0.953125q-0.390625 0.390625 -0.9375 0.390625q-0.546875 0 -0.953125 -0.390625zm7.6586914 12.109375l-4.0625 -10.109375l2.203125 0l3.078125 7.640625l3.078125 -7.640625l2.203125 0l-4.0625 10.109375l-2.4375 0zm17.390137 -4.125l-7.921875 0q0.078125 1.109375 1.0 1.78125q0.9375 0.671875 2.140625 0.671875q1.90625 0 2.890625 -1.203125l1.21875 1.34375q-1.640625 1.6875 -4.265625 1.6875q-2.125 0 -3.625 -1.40625q-1.484375 -1.421875 -1.484375 -3.8125q0 -2.390625 1.515625 -3.796875q1.53125 -1.40625 3.59375 -1.40625q2.0625 0 3.5 1.25q1.4375 1.25 1.4375 3.421875l0 1.46875zm-7.921875 -1.671875l5.796875 0q0 -1.265625 -0.796875 -1.953125q-0.796875 -0.6875 -1.96875 -0.6875q-1.15625 0 -2.09375 0.71875q-0.9375 0.703125 -0.9375 1.921875zm15.469482 5.796875l0 -13.28125l2.234375 0l0 5.75l6.59375 0l0 -5.75l2.25 0l0 13.28125l-2.25 0l0 -5.4375l-6.59375 0l0 5.4375l-2.234375 0zm22.386536 0l-1.9375 0l0 -1.34375q-1.265625 1.5 -3.375 1.5q-1.578125 0 -2.609375 -0.890625q-1.03125 -0.90625 -1.03125 -2.390625q0 -1.484375 1.09375 -2.21875q1.109375 -0.75 2.984375 -0.75l2.765625 0l0 -0.390625q0 -2.015625 -2.25 -2.015625q-1.40625 0 -2.921875 1.03125l-0.953125 -1.328125q1.84375 -1.46875 4.1875 -1.46875q1.78125 0 2.90625 0.90625q1.140625 0.90625 1.140625 2.84375l0 6.515625zm-2.140625 -3.765625l0 -0.84375l-2.390625 0q-2.296875 0 -2.296875 1.4375q0 0.734375 0.5625 1.125q0.578125 0.390625 1.59375 0.390625q1.015625 0 1.765625 -0.5625q0.765625 -0.578125 0.765625 -1.546875zm10.310608 -6.5q2.03125 0 3.46875 1.40625q1.453125 1.40625 1.453125 3.75q0 2.328125 -1.4375 3.796875q-1.4375 1.46875 -3.34375 1.46875q-1.90625 0 -3.421875 -1.671875l0 5.203125l-2.140625 0l0 -13.796875l2.140625 0l0 1.765625q1.25 -1.921875 3.28125 -1.921875zm-3.328125 5.234375q0 1.4375 0.875 2.359375q0.875 0.921875 2.125 0.921875q1.265625 0 2.1875 -0.90625q0.9375 -0.921875 0.9375 -2.375q0 -1.453125 -0.921875 -2.40625q-0.90625 -0.953125 -2.1875 -0.953125q-1.265625 0 -2.140625 0.953125q-0.875 0.953125 -0.875 2.40625zm13.068298 -3.359375l0 5.125q0 0.71875 0.375 1.15625q0.390625 0.421875 1.0625 0.421875q0.6875 0 1.328125 -0.671875l0.875 1.5q-1.125 1.015625 -2.484375 1.015625q-1.359375 0 -2.328125 -0.9375q-0.953125 -0.953125 -0.953125 -2.546875l0 -5.0625l-1.265625 0l0 -1.71875l1.265625 0l0 -3.171875l2.125 0l0 3.171875l2.671875 0l0 1.71875l-2.671875 0zm7.313904 8.390625l-2.140625 0l0 -10.109375l2.140625 0l0 10.109375zm-2.0 -12.109375q-0.40625 -0.40625 -0.40625 -0.953125q0 -0.5625 0.40625 -0.953125q0.40625 -0.40625 0.953125 -0.40625q0.546875 0 0.9375 0.40625q0.40625 0.390625 0.40625 0.953125q0 0.546875 -0.40625 0.953125q-0.390625 0.390625 -0.9375 0.390625q-0.546875 0 -0.953125 -0.390625zm9.455566 12.265625q-2.109375 0 -3.625 -1.4375q-1.515625 -1.4375 -1.515625 -3.75q0 -2.328125 1.578125 -3.78125q1.59375 -1.453125 3.875 -1.453125q2.28125 0 3.859375 1.578125l-1.25 1.546875q-1.3125 -1.140625 -2.65625 -1.140625q-1.328125 0 -2.3125 0.890625q-0.96875 0.875 -0.96875 2.28125q0 1.390625 0.96875 2.359375q0.96875 0.96875 2.375 0.96875q1.421875 0 2.6875 -1.296875l1.25 1.375q-1.84375 1.859375 -4.265625 1.859375zm13.464783 -3.171875q0 1.4375 -1.046875 2.3125q-1.03125 0.859375 -2.671875 0.859375q-1.109375 0 -2.296875 -0.390625q-1.1875 -0.40625 -2.09375 -1.140625l1.03125 -1.640625q1.765625 1.328125 3.421875 1.328125q0.71875 0 1.125 -0.328125q0.421875 -0.34375 0.421875 -0.859375q0 -0.75 -2.015625 -1.359375q-0.140625 -0.0625 -0.21875 -0.078125q-3.15625 -0.859375 -3.15625 -2.84375q0 -1.40625 1.09375 -2.25q1.09375 -0.859375 2.84375 -0.859375q1.75 0 3.296875 1.03125l-0.796875 1.578125q-1.234375 -0.8125 -2.671875 -0.8125q-0.765625 0 -1.25 0.28125q-0.46875 0.265625 -0.46875 0.8125q0 0.5 0.5 0.71875q0.34375 0.171875 0.953125 0.328125q0.625 0.15625 1.09375 0.3125q0.484375 0.140625 0.921875 0.34375q0.453125 0.1875 0.96875 0.515625q1.015625 0.6875 1.015625 2.140625z" fill-rule="nonzero"></path></g></svg>

