<?xml version="1.0" standalone="yes"?>

<svg version="1.1" viewBox="0.0 0.0 261.6089238845144 405.87926509186354" fill="none" stroke="none" stroke-linecap="square" stroke-miterlimit="10" xmlns="http://www.w3.org/2000/svg" xmlns:xlink="http://www.w3.org/1999/xlink"><clipPath id="p.0"><path d="m0 0l261.60892 0l0 405.87927l-261.60892 0l0 -405.87927z" clip-rule="nonzero"></path></clipPath><g clip-path="url(#p.0)"><path fill="#000000" fill-opacity="0.0" d="m0 0l261.60892 0l0 405.87927l-261.60892 0z" fill-rule="nonzero"></path><path fill="#000000" fill-opacity="0.0" d="m35.75294 366.40244l190.58267 0l0 21.070862l-190.58267 0z" fill-rule="nonzero"></path><path stroke="#000000" stroke-width="2.0" stroke-linejoin="round" stroke-linecap="butt" d="m35.75294 366.40244l190.58267 0l0 21.070862l-190.58267 0z" fill-rule="nonzero"></path><path fill="#000000" fill-opacity="0.0" d="m35.273308 366.39856l190.58267 0" fill-rule="nonzero"></path><path stroke="#000000" stroke-width="2.0" stroke-linejoin="round" stroke-linecap="butt" d="m35.273308 366.39856l190.58267 0" fill-rule="nonzero"></path><path fill="#000000" fill-opacity="0.0" d="m54.212032 209.05774l35.464565 132.34647" fill-rule="nonzero"></path><path stroke="#000000" stroke-width="2.0" stroke-linejoin="round" stroke-linecap="butt" d="m54.212032 209.05774l35.464565 132.34647" fill-rule="nonzero"></path><path fill="#000000" fill-opacity="0.0" d="m89.85444 341.9842l6.2677155 23.433075" fill-rule="nonzero"></path><path stroke="#b7b7b7" stroke-width="1.0" stroke-linejoin="round" stroke-linecap="butt" d="m89.85444 341.9842l6.2677155 23.433075" fill-rule="nonzero"></path><path fill="#cfe2f3" d="m105.298325 296.95303l32.220474 -8.598419l-1.433075 -5.3700867l13.606293 7.8740234l-7.874008 13.606293l-1.433075 -5.3700867l-32.220467 8.59845z" fill-rule="nonzero"></path><path stroke="#000000" stroke-width="1.0" stroke-linejoin="round" stroke-linecap="butt" d="m105.298325 296.95303l32.220474 -8.598419l-1.433075 -5.3700867l13.606293 7.8740234l-7.874008 13.606293l-1.433075 -5.3700867l-32.220467 8.59845z" fill-rule="nonzero"></path><path fill="#000000" fill-opacity="0.0" d="m145.4672 268.734l35.46457 0l0 43.496063l-35.46457 0z" fill-rule="nonzero"></path><path fill="#000000" d="m163.0922 284.41962l-7.484375 0l0 -2.046875l10.59375 0l0 1.75l-7.703125 9.40625l0 0.046875l7.828125 0l0 2.078125l-10.96875 0l0 -1.734375l7.734375 -9.4375l0 -0.0625z" fill-rule="nonzero"></path><path fill="#cfe2f3" d="m89.178665 298.15112l-8.621521 -32.218506l-5.370079 1.4409485l7.865616 -13.624023l13.6147 7.8602295l-5.370079 1.4409485l8.621521 32.218506z" fill-rule="nonzero"></path><path stroke="#000000" stroke-width="1.0" stroke-linejoin="round" stroke-linecap="butt" d="m89.178665 298.15112l-8.621521 -32.218506l-5.370079 1.4409485l7.865616 -13.624023l13.6147 7.8602295l-5.370079 1.4409485l8.621521 32.218506z" fill-rule="nonzero"></path><path fill="#000000" fill-opacity="0.0" d="m66.73753 220.88098l35.46457 0l0 43.496063l-35.46457 0z" fill-rule="nonzero"></path><path fill="#000000" d="m82.80003 247.80098l-2.28125 0l0 -5.25l-4.9375 -8.03125l2.453125 0l3.625 6.046875l3.640625 -6.046875l2.453125 0l-4.953125 8.03125l0 5.25z" fill-rule="nonzero"></path><path fill="#d9d9d9" d="m64.081116 20.366142l132.66142 0l0 132.6614l-132.66142 0z" fill-rule="nonzero"></path><path stroke="#000000" stroke-width="2.0" stroke-linejoin="round" stroke-linecap="butt" d="m64.081116 20.366142l132.66142 0l0 132.6614l-132.66142 0z" fill-rule="nonzero"></path><path fill="#000000" d="m66.73539 153.45119l5.5747986 0l0 18.645676l-5.5747986 0z" fill-rule="nonzero"></path><path stroke="#000000" stroke-width="2.0" stroke-linejoin="round" stroke-linecap="butt" d="m66.73539 153.45119l5.5747986 0l0 18.645676l-5.5747986 0z" fill-rule="nonzero"></path><path fill="#000000" fill-opacity="0.0" d="m32.755905 173.36684l196.09448 0l0 22.236221l-196.09448 0z" fill-rule="nonzero"></path><path stroke="#000000" stroke-width="2.0" stroke-linejoin="round" stroke-linecap="butt" d="m32.755905 173.36684l196.09448 0l0 22.236221l-196.09448 0z" fill-rule="nonzero"></path><path fill="#000000" d="m188.13333 153.45119l5.5747986 0l0 18.645676l-5.5747986 0z" fill-rule="nonzero"></path><path stroke="#000000" stroke-width="2.0" stroke-linejoin="round" stroke-linecap="butt" d="m188.13333 153.45119l5.5747986 0l0 18.645676l-5.5747986 0z" fill-rule="nonzero"></path><path fill="#cfe2f3" d="m77.868835 123.64836l0.023620605 -33.354332l-5.559059 0l11.125984 -11.118111l11.110237 11.118111l-5.5590515 0l-0.023628235 33.354332z" fill-rule="nonzero"></path><path stroke="#000000" stroke-width="1.0" stroke-linejoin="round" stroke-linecap="butt" d="m77.868835 123.64836l0.023620605 -33.354332l-5.559059 0l11.125984 -11.118111l11.110237 11.118111l-5.5590515 0l-0.023628235 33.354332z" fill-rule="nonzero"></path><path fill="#cfe2f3" d="m83.02369 129.20741l33.354332 0.023620605l0 -5.5590515l11.118111 11.125992l-11.118111 11.1102295l0 -5.5590515l-33.354332 -0.023620605z" fill-rule="nonzero"></path><path stroke="#000000" stroke-width="1.0" stroke-linejoin="round" stroke-linecap="butt" d="m83.02369 129.20741l33.354332 0.023620605l0 -5.5590515l11.118111 11.125992l-11.118111 11.1102295l0 -5.5590515l-33.354332 -0.023620605z" fill-rule="nonzero"></path><path fill="#000000" fill-opacity="0.0" d="m70.47592 44.947906l35.46457 0l0 43.496063l-35.46457 0z" fill-rule="nonzero"></path><path fill="#000000" d="m86.53842 71.867905l-2.28125 0l0 -5.25l-4.9375 -8.03125l2.453125 0l3.625 6.046875l3.640625 -6.046875l2.453125 0l-4.953125 8.03125l0 5.25z" fill-rule="nonzero"></path><path fill="#000000" fill-opacity="0.0" d="m124.26024 114.32919l35.46457 0l0 43.496063l-35.46457 0z" fill-rule="nonzero"></path><path fill="#000000" d="m142.96336 141.24919l-3.265625 -5.0l-0.09375 0l-3.265625 5.0l-2.796875 0l4.5625 -6.828125l-4.234375 -6.453125l2.765625 0l2.96875 4.484375l0.09375 0l2.96875 -4.484375l2.765625 0l-4.234375 6.453125l4.5625 6.828125l-2.796875 0z" fill-rule="nonzero"></path></g></svg>

