<?xml version="1.0" standalone="yes"?>

<svg version="1.1" viewBox="0.0 0.0 958.8582677165355 470.45669291338584" fill="none" stroke="none" stroke-linecap="square" stroke-miterlimit="10" xmlns="http://www.w3.org/2000/svg" xmlns:xlink="http://www.w3.org/1999/xlink"><clipPath id="p.0"><path d="m0 0l958.8583 0l0 470.4567l-958.8583 0l0 -470.4567z" clip-rule="nonzero"></path></clipPath><g clip-path="url(#p.0)"><path fill="#000000" fill-opacity="0.0" d="m0 0l958.8583 0l0 470.4567l-958.8583 0z" fill-rule="nonzero"></path><path fill="#6d9eeb" d="m19.503937 12.212599l446.17322 0l0 96.34645l-446.17322 0z" fill-rule="nonzero"></path><path fill="#000000" d="m175.94824 54.024574q3.015625 0 4.40625 1.15625q1.390625 1.15625 1.390625 3.578125q0 2.40625 -1.421875 3.53125q-1.421875 1.125 -4.34375 1.125l-2.359375 0l0 3.890625l-2.234375 0l0 -13.28125l4.5625 0zm0.28125 7.359375q1.859375 0 2.53125 -0.71875q0.6875 -0.71875 0.6875 -2.09375q0 -1.375 -0.859375 -1.9375q-0.859375 -0.578125 -2.6875 -0.578125l-2.28125 0l0 5.328125l2.609375 0zm15.8077545 5.921875l-1.9375 0l0 -1.34375q-1.265625 1.5 -3.375 1.5q-1.578125 0 -2.609375 -0.890625q-1.03125 -0.90625 -1.03125 -2.390625q0 -1.484375 1.09375 -2.21875q1.109375 -0.75 2.984375 -0.75l2.765625 0l0 -0.390625q0 -2.015625 -2.25 -2.015625q-1.40625 0 -2.921875 1.03125l-0.953125 -1.328125q1.84375 -1.46875 4.1875 -1.46875q1.78125 0 2.90625 0.90625q1.140625 0.90625 1.140625 2.84375l0 6.515625zm-2.140625 -3.765625l0 -0.84375l-2.390625 0q-2.296875 0 -2.296875 1.4375q0 0.734375 0.5625 1.125q0.578125 0.390625 1.59375 0.390625q1.015625 0 1.765625 -0.5625q0.765625 -0.578125 0.765625 -1.546875zm12.091843 0.75q0 1.4375 -1.046875 2.3125q-1.03125 0.859375 -2.671875 0.859375q-1.109375 0 -2.296875 -0.390625q-1.1875 -0.40625 -2.09375 -1.140625l1.03125 -1.640625q1.765625 1.328125 3.421875 1.328125q0.71875 0 1.125 -0.328125q0.421875 -0.34375 0.421875 -0.859375q0 -0.75 -2.015625 -1.359375q-0.140625 -0.0625 -0.21875 -0.078125q-3.15625 -0.859375 -3.15625 -2.84375q0 -1.40625 1.09375 -2.25q1.09375 -0.859375 2.84375 -0.859375q1.75 0 3.296875 1.03125l-0.796875 1.578125q-1.234375 -0.8125 -2.671875 -0.8125q-0.765625 0 -1.25 0.28125q-0.46875 0.265625 -0.46875 0.8125q0 0.5 0.5 0.71875q0.34375 0.171875 0.953125 0.328125q0.625 0.15625 1.09375 0.3125q0.484375 0.140625 0.921875 0.34375q0.453125 0.1875 0.96875 0.515625q1.015625 0.6875 1.015625 2.140625zm9.440063 0q0 1.4375 -1.046875 2.3125q-1.03125 0.859375 -2.671875 0.859375q-1.109375 0 -2.296875 -0.390625q-1.1875 -0.40625 -2.09375 -1.140625l1.03125 -1.640625q1.765625 1.328125 3.421875 1.328125q0.71875 0 1.125 -0.328125q0.421875 -0.34375 0.421875 -0.859375q0 -0.75 -2.015625 -1.359375q-0.140625 -0.0625 -0.21875 -0.078125q-3.15625 -0.859375 -3.15625 -2.84375q0 -1.40625 1.09375 -2.25q1.09375 -0.859375 2.84375 -0.859375q1.75 0 3.296875 1.03125l-0.796875 1.578125q-1.234375 -0.8125 -2.671875 -0.8125q-0.765625 0 -1.25 0.28125q-0.46875 0.265625 -0.46875 0.8125q0 0.5 0.5 0.71875q0.34375 0.171875 0.953125 0.328125q0.625 0.15625 1.09375 0.3125q0.484375 0.140625 0.921875 0.34375q0.453125 0.1875 0.96875 0.515625q1.015625 0.6875 1.015625 2.140625zm4.3775635 3.015625l-2.140625 0l0 -10.109375l2.140625 0l0 10.109375zm-2.0 -12.109375q-0.40625 -0.40625 -0.40625 -0.953125q0 -0.5625 0.40625 -0.953125q0.40625 -0.40625 0.953125 -0.40625q0.546875 0 0.9375 0.40625q0.40625 0.390625 0.40625 0.953125q0 0.546875 -0.40625 0.953125q-0.390625 0.390625 -0.9375 0.390625q-0.546875 0 -0.953125 -0.390625zm7.6586914 12.109375l-4.0625 -10.109375l2.203125 0l3.078125 7.640625l3.078125 -7.640625l2.203125 0l-4.0625 10.109375l-2.4375 0zm17.390121 -4.125l-7.921875 0q0.078125 1.109375 1.0 1.78125q0.9375 0.671875 2.140625 0.671875q1.90625 0 2.890625 -1.203125l1.21875 1.34375q-1.640625 1.6875 -4.265625 1.6875q-2.125 0 -3.625 -1.40625q-1.484375 -1.421875 -1.484375 -3.8125q0 -2.390625 1.515625 -3.796875q1.53125 -1.40625 3.59375 -1.40625q2.0625 0 3.5 1.25q1.4375 1.25 1.4375 3.421875l0 1.46875zm-7.921875 -1.671875l5.796875 0q0 -1.265625 -0.796875 -1.953125q-0.796875 -0.6875 -1.96875 -0.6875q-1.15625 0 -2.09375 0.71875q-0.9375 0.703125 -0.9375 1.921875zm15.469513 5.796875l0 -13.28125l2.234375 0l0 5.75l6.59375 0l0 -5.75l2.2500153 0l0 13.28125l-2.2500153 0l0 -5.4375l-6.59375 0l0 5.4375l-2.234375 0zm22.38655 0l-1.9375 0l0 -1.34375q-1.265625 1.5 -3.375 1.5q-1.578125 0 -2.609375 -0.890625q-1.03125 -0.90625 -1.03125 -2.390625q0 -1.484375 1.09375 -2.21875q1.109375 -0.75 2.984375 -0.75l2.765625 0l0 -0.390625q0 -2.015625 -2.25 -2.015625q-1.40625 0 -2.921875 1.03125l-0.953125 -1.328125q1.84375 -1.46875 4.1875 -1.46875q1.78125 0 2.90625 0.90625q1.140625 0.90625 1.140625 2.84375l0 6.515625zm-2.140625 -3.765625l0 -0.84375l-2.390625 0q-2.296875 0 -2.296875 1.4375q0 0.734375 0.5625 1.125q0.578125 0.390625 1.59375 0.390625q1.015625 0 1.765625 -0.5625q0.765625 -0.578125 0.765625 -1.546875zm10.310577 -6.5q2.03125 0 3.46875 1.40625q1.453125 1.40625 1.453125 3.75q0 2.328125 -1.4375 3.796875q-1.4375 1.46875 -3.34375 1.46875q-1.90625 0 -3.421875 -1.671875l0 5.203125l-2.140625 0l0 -13.796875l2.140625 0l0 1.765625q1.25 -1.921875 3.28125 -1.921875zm-3.328125 5.234375q0 1.4375 0.875 2.359375q0.875 0.921875 2.125 0.921875q1.265625 0 2.1875 -0.90625q0.9375 -0.921875 0.9375 -2.375q0 -1.453125 -0.921875 -2.40625q-0.90625 -0.953125 -2.1875 -0.953125q-1.265625 0 -2.140625 0.953125q-0.875 0.953125 -0.875 2.40625zm13.068268 -3.359375l0 5.125q0 0.71875 0.375 1.15625q0.390625 0.421875 1.0625 0.421875q0.6875 0 1.328125 -0.671875l0.875 1.5q-1.125 1.015625 -2.484375 1.015625q-1.359375 0 -2.328125 -0.9375q-0.953125 -0.953125 -0.953125 -2.546875l0 -5.0625l-1.265625 0l0 -1.71875l1.265625 0l0 -3.171875l2.125 0l0 3.171875l2.671875 0l0 1.71875l-2.671875 0zm7.313904 8.390625l-2.140625 0l0 -10.109375l2.140625 0l0 10.109375zm-2.0 -12.109375q-0.40625 -0.40625 -0.40625 -0.953125q0 -0.5625 0.40625 -0.953125q0.40625 -0.40625 0.953125 -0.40625q0.546875 0 0.9375 0.40625q0.40625 0.390625 0.40625 0.953125q0 0.546875 -0.40625 0.953125q-0.390625 0.390625 -0.9375 0.390625q-0.546875 0 -0.953125 -0.390625zm9.455566 12.265625q-2.109375 0 -3.625 -1.4375q-1.515625 -1.4375 -1.515625 -3.75q0 -2.328125 1.578125 -3.78125q1.59375 -1.453125 3.875 -1.453125q2.28125 0 3.859375 1.578125l-1.25 1.546875q-1.3125 -1.140625 -2.65625 -1.140625q-1.328125 0 -2.3125 0.890625q-0.96875 0.875 -0.96875 2.28125q0 1.390625 0.96875 2.359375q0.96875 0.96875 2.375 0.96875q1.421875 0 2.6875 -1.296875l1.25 1.375q-1.84375 1.859375 -4.265625 1.859375zm13.464783 -3.171875q0 1.4375 -1.046875 2.3125q-1.03125 0.859375 -2.671875 0.859375q-1.109375 0 -2.296875 -0.390625q-1.1875 -0.40625 -2.09375 -1.140625l1.03125 -1.640625q1.765625 1.328125 3.421875 1.328125q0.71875 0 1.125 -0.328125q0.421875 -0.34375 0.421875 -0.859375q0 -0.75 -2.015625 -1.359375q-0.140625 -0.0625 -0.21875 -0.078125q-3.15625 -0.859375 -3.15625 -2.84375q0 -1.40625 1.09375 -2.25q1.09375 -0.859375 2.84375 -0.859375q1.75 0 3.296875 1.03125l-0.796875 1.578125q-1.234375 -0.8125 -2.671875 -0.8125q-0.765625 0 -1.25 0.28125q-0.46875 0.265625 -0.46875 0.8125q0 0.5 0.5 0.71875q0.34375 0.171875 0.953125 0.328125q0.625 0.15625 1.09375 0.3125q0.484375 0.140625 0.921875 0.34375q0.453125 0.1875 0.96875 0.515625q1.015625 0.6875 1.015625 2.140625z" fill-rule="nonzero"></path><path fill="#f1c232" d="m497.73752 12.212599l446.17325 0l0 96.34645l-446.17325 0z" fill-rule="nonzero"></path><path fill="#000000" d="m643.1363 54.024574l2.25 0l0 13.28125l-2.4375 0l-7.53125 -9.6875l0 9.6875l-2.234375 0l0 -13.28125l2.234375 0l7.71875 9.921875l0 -9.921875zm7.7059937 10.609375q0.90625 0.921875 2.28125 0.921875q1.390625 0 2.296875 -0.921875q0.90625 -0.921875 0.90625 -2.375q0 -1.46875 -0.90625 -2.390625q-0.90625 -0.921875 -2.296875 -0.921875q-1.375 0 -2.28125 0.921875q-0.90625 0.921875 -0.90625 2.390625q0 1.453125 0.90625 2.375zm6.078125 1.3125q-1.515625 1.515625 -3.796875 1.515625q-2.28125 0 -3.796875 -1.515625q-1.515625 -1.515625 -1.515625 -3.6875q0 -2.1875 1.515625 -3.703125q1.515625 -1.515625 3.796875 -1.515625q2.28125 0 3.796875 1.515625q1.53125 1.515625 1.53125 3.703125q0 2.171875 -1.53125 3.6875zm13.697571 -11.921875q3.015625 0 4.40625 1.15625q1.390625 1.15625 1.390625 3.578125q0 2.40625 -1.421875 3.53125q-1.421875 1.125 -4.34375 1.125l-2.359375 0l0 3.890625l-2.234375 0l0 -13.28125l4.5625 0zm0.28125 7.359375q1.859375 0 2.53125 -0.71875q0.6875 -0.71875 0.6875 -2.09375q0 -1.375 -0.859375 -1.9375q-0.859375 -0.578125 -2.6875 -0.578125l-2.28125 0l0 5.328125l2.609375 0zm15.807739 5.921875l-1.9375 0l0 -1.34375q-1.265625 1.5 -3.375 1.5q-1.578125 0 -2.609375 -0.890625q-1.03125 -0.90625 -1.03125 -2.390625q0 -1.484375 1.09375 -2.21875q1.109375 -0.75 2.984375 -0.75l2.765625 0l0 -0.390625q0 -2.015625 -2.25 -2.015625q-1.40625 0 -2.921875 1.03125l-0.953125 -1.328125q1.84375 -1.46875 4.1875 -1.46875q1.78125 0 2.90625 0.90625q1.140625 0.90625 1.140625 2.84375l0 6.515625zm-2.140625 -3.765625l0 -0.84375l-2.390625 0q-2.296875 0 -2.296875 1.4375q0 0.734375 0.5625 1.125q0.578125 0.390625 1.59375 0.390625q1.015625 0 1.765625 -0.5625q0.765625 -0.578125 0.765625 -1.546875zm12.091858 0.75q0 1.4375 -1.046875 2.3125q-1.03125 0.859375 -2.671875 0.859375q-1.109375 0 -2.296875 -0.390625q-1.1875 -0.40625 -2.09375 -1.140625l1.03125 -1.640625q1.765625 1.328125 3.421875 1.328125q0.71875 0 1.125 -0.328125q0.421875 -0.34375 0.421875 -0.859375q0 -0.75 -2.015625 -1.359375q-0.140625 -0.0625 -0.21875 -0.078125q-3.15625 -0.859375 -3.15625 -2.84375q0 -1.40625 1.09375 -2.25q1.09375 -0.859375 2.84375 -0.859375q1.75 0 3.296875 1.03125l-0.796875 1.578125q-1.234375 -0.8125 -2.671875 -0.8125q-0.765625 0 -1.25 0.28125q-0.46875 0.265625 -0.46875 0.8125q0 0.5 0.5 0.71875q0.34375 0.171875 0.953125 0.328125q0.625 0.15625 1.09375 0.3125q0.484375 0.140625 0.921875 0.34375q0.453125 0.1875 0.96875 0.515625q1.015625 0.6875 1.015625 2.140625zm9.440063 0q0 1.4375 -1.046875 2.3125q-1.03125 0.859375 -2.671875 0.859375q-1.109375 0 -2.296875 -0.390625q-1.1875 -0.40625 -2.09375 -1.140625l1.03125 -1.640625q1.765625 1.328125 3.421875 1.328125q0.71875 0 1.125 -0.328125q0.421875 -0.34375 0.421875 -0.859375q0 -0.75 -2.015625 -1.359375q-0.140625 -0.0625 -0.21875 -0.078125q-3.15625 -0.859375 -3.15625 -2.84375q0 -1.40625 1.09375 -2.25q1.09375 -0.859375 2.84375 -0.859375q1.75 0 3.296875 1.03125l-0.796875 1.578125q-1.234375 -0.8125 -2.671875 -0.8125q-0.765625 0 -1.25 0.28125q-0.46875 0.265625 -0.46875 0.8125q0 0.5 0.5 0.71875q0.34375 0.171875 0.953125 0.328125q0.625 0.15625 1.09375 0.3125q0.484375 0.140625 0.921875 0.34375q0.453125 0.1875 0.96875 0.515625q1.015625 0.6875 1.015625 2.140625zm4.3775635 3.015625l-2.140625 0l0 -10.109375l2.140625 0l0 10.109375zm-2.0 -12.109375q-0.40625 -0.40625 -0.40625 -0.953125q0 -0.5625 0.40625 -0.953125q0.40625 -0.40625 0.953125 -0.40625q0.546875 0 0.9375 0.40625q0.40625 0.390625 0.40625 0.953125q0 0.546875 -0.40625 0.953125q-0.390625 0.390625 -0.9375 0.390625q-0.546875 0 -0.953125 -0.390625zm7.6586914 12.109375l-4.0625 -10.109375l2.203125 0l3.078125 7.640625l3.078125 -7.640625l2.203125 0l-4.0625 10.109375l-2.4375 0zm17.390137 -4.125l-7.921875 0q0.078125 1.109375 1.0 1.78125q0.9375 0.671875 2.140625 0.671875q1.90625 0 2.890625 -1.203125l1.21875 1.34375q-1.640625 1.6875 -4.265625 1.6875q-2.125 0 -3.625 -1.40625q-1.484375 -1.421875 -1.484375 -3.8125q0 -2.390625 1.515625 -3.796875q1.53125 -1.40625 3.59375 -1.40625q2.0625 0 3.5 1.25q1.4375 1.25 1.4375 3.421875l0 1.46875zm-7.921875 -1.671875l5.796875 0q0 -1.265625 -0.796875 -1.953125q-0.796875 -0.6875 -1.96875 -0.6875q-1.15625 0 -2.09375 0.71875q-0.9375 0.703125 -0.9375 1.921875zm15.469482 5.796875l0 -13.28125l2.234375 0l0 5.75l6.59375 0l0 -5.75l2.25 0l0 13.28125l-2.25 0l0 -5.4375l-6.59375 0l0 5.4375l-2.234375 0zm22.386597 0l-1.9375 0l0 -1.34375q-1.265625 1.5 -3.375 1.5q-1.578125 0 -2.609375 -0.890625q-1.03125 -0.90625 -1.03125 -2.390625q0 -1.484375 1.09375 -2.21875q1.109375 -0.75 2.984375 -0.75l2.765625 0l0 -0.390625q0 -2.015625 -2.25 -2.015625q-1.40625 0 -2.921875 1.03125l-0.953125 -1.328125q1.84375 -1.46875 4.1875 -1.46875q1.78125 0 2.90625 0.90625q1.140625 0.90625 1.140625 2.84375l0 6.515625zm-2.140625 -3.765625l0 -0.84375l-2.390625 0q-2.296875 0 -2.296875 1.4375q0 0.734375 0.5625 1.125q0.578125 0.390625 1.59375 0.390625q1.015625 0 1.765625 -0.5625q0.765625 -0.578125 0.765625 -1.546875zm10.310547 -6.5q2.03125 0 3.46875 1.40625q1.453125 1.40625 1.453125 3.75q0 2.328125 -1.4375 3.796875q-1.4375 1.46875 -3.34375 1.46875q-1.90625 0 -3.421875 -1.671875l0 5.203125l-2.140625 0l0 -13.796875l2.140625 0l0 1.765625q1.25 -1.921875 3.28125 -1.921875zm-3.328125 5.234375q0 1.4375 0.875 2.359375q0.875 0.921875 2.125 0.921875q1.265625 0 2.1875 -0.90625q0.9375 -0.921875 0.9375 -2.375q0 -1.453125 -0.921875 -2.40625q-0.90625 -0.953125 -2.1875 -0.953125q-1.265625 0 -2.140625 0.953125q-0.875 0.953125 -0.875 2.40625zm13.068298 -3.359375l0 5.125q0 0.71875 0.375 1.15625q0.390625 0.421875 1.0625 0.421875q0.6875 0 1.328125 -0.671875l0.875 1.5q-1.125 1.015625 -2.484375 1.015625q-1.359375 0 -2.328125 -0.9375q-0.953125 -0.953125 -0.953125 -2.546875l0 -5.0625l-1.265625 0l0 -1.71875l1.265625 0l0 -3.171875l2.125 0l0 3.171875l2.671875 0l0 1.71875l-2.671875 0zm7.313904 8.390625l-2.140625 0l0 -10.109375l2.140625 0l0 10.109375zm-2.0 -12.109375q-0.40625 -0.40625 -0.40625 -0.953125q0 -0.5625 0.40625 -0.953125q0.40625 -0.40625 0.953125 -0.40625q0.546875 0 0.9375 0.40625q0.40625 0.390625 0.40625 0.953125q0 0.546875 -0.40625 0.953125q-0.390625 0.390625 -0.9375 0.390625q-0.546875 0 -0.953125 -0.390625zm9.455566 12.265625q-2.109375 0 -3.625 -1.4375q-1.515625 -1.4375 -1.515625 -3.75q0 -2.328125 1.578125 -3.78125q1.59375 -1.453125 3.875 -1.453125q2.28125 0 3.859375 1.578125l-1.25 1.546875q-1.3125 -1.140625 -2.65625 -1.140625q-1.328125 0 -2.3125 0.890625q-0.96875 0.875 -0.96875 2.28125q0 1.390625 0.96875 2.359375q0.96875 0.96875 2.375 0.96875q1.421875 0 2.6875 -1.296875l1.25 1.375q-1.84375 1.859375 -4.265625 1.859375zm13.464783 -3.171875q0 1.4375 -1.046875 2.3125q-1.03125 0.859375 -2.671875 0.859375q-1.109375 0 -2.296875 -0.390625q-1.1875 -0.40625 -2.09375 -1.140625l1.03125 -1.640625q1.765625 1.328125 3.421875 1.328125q0.71875 0 1.125 -0.328125q0.421875 -0.34375 0.421875 -0.859375q0 -0.75 -2.015625 -1.359375q-0.140625 -0.0625 -0.21875 -0.078125q-3.15625 -0.859375 -3.15625 -2.84375q0 -1.40625 1.09375 -2.25q1.09375 -0.859375 2.84375 -0.859375q1.75 0 3.296875 1.03125l-0.796875 1.578125q-1.234375 -0.8125 -2.671875 -0.8125q-0.765625 0 -1.25 0.28125q-0.46875 0.265625 -0.46875 0.8125q0 0.5 0.5 0.71875q0.34375 0.171875 0.953125 0.328125q0.625 0.15625 1.09375 0.3125q0.484375 0.140625 0.921875 0.34375q0.453125 0.1875 0.96875 0.515625q1.015625 0.6875 1.015625 2.140625z" fill-rule="nonzero"></path><path fill="#9fc5e8" d="m19.503937 178.42783l296.15747 0l0 96.346466l-296.15747 0z" fill-rule="nonzero"></path><path fill="#000000" d="m105.005585 220.48979q1.15625 0 1.984375 -0.390625q0.84375 -0.390625 1.75 -1.25l1.453125 1.484375q-2.109375 2.34375 -5.125 2.34375q-3.015625 0 -5.0 -1.9375q-1.984375 -1.9375 -1.984375 -4.90625q0 -2.96875 2.015625 -4.9375q2.03125 -1.984375 5.109375 -1.984375q3.09375 0 5.171875 2.28125l-1.421875 1.5625q-0.953125 -0.90625 -1.796875 -1.265625q-0.84375 -0.375 -1.984375 -0.375q-2.015625 0 -3.390625 1.3125q-1.359375 1.296875 -1.359375 3.328125q0 2.015625 1.359375 3.375q1.359375 1.359375 3.21875 1.359375zm9.496628 2.03125l-2.140625 0l0 -10.109375l2.140625 0l0 10.109375zm-2.0 -12.109375q-0.40625 -0.40625 -0.40625 -0.953125q0 -0.5625 0.40625 -0.953125q0.40625 -0.40625 0.953125 -0.40625q0.546875 0 0.9375 0.40625q0.40625 0.390625 0.40625 0.953125q0 0.546875 -0.40625 0.953125q-0.390625 0.390625 -0.9375 0.390625q-0.546875 0 -0.953125 -0.390625zm10.283691 4.0q-1.578125 0 -2.375 1.03125q-0.796875 1.015625 -0.796875 2.75l0 4.328125l-2.140625 0l0 -10.109375l2.140625 0l0 2.03125q0.515625 -0.953125 1.390625 -1.546875q0.890625 -0.609375 1.875 -0.640625l0.015625 2.15625q-0.0625 0 -0.109375 0zm6.578415 8.265625q-2.109375 0 -3.625 -1.4375q-1.515625 -1.4375 -1.515625 -3.75q0 -2.328125 1.578125 -3.78125q1.59375 -1.453125 3.875 -1.453125q2.28125 0 3.859375 1.578125l-1.25 1.546875q-1.3125 -1.140625 -2.65625 -1.140625q-1.328125 0 -2.3125 0.890625q-0.96875 0.875 -0.96875 2.28125q0 1.390625 0.96875 2.359375q0.96875 0.96875 2.375 0.96875q1.421875 0 2.6875 -1.296875l1.25 1.375q-1.84375 1.859375 -4.265625 1.859375zm8.402252 -0.15625l-2.140625 0l0 -14.09375l2.140625 0l0 14.09375zm12.377441 -4.125l-7.921875 0q0.078125 1.109375 1.0 1.78125q0.9375 0.671875 2.140625 0.671875q1.90625 0 2.890625 -1.203125l1.21875 1.34375q-1.640625 1.6875 -4.265625 1.6875q-2.125 0 -3.625 -1.40625q-1.484375 -1.421875 -1.484375 -3.8125q0 -2.390625 1.515625 -3.796875q1.53125 -1.40625 3.59375 -1.40625q2.0625 0 3.5 1.25q1.4375 1.25 1.4375 3.421875l0 1.46875zm-7.921875 -1.671875l5.796875 0q0 -1.265625 -0.796875 -1.953125q-0.796875 -0.6875 -1.96875 -0.6875q-1.15625 0 -2.09375 0.71875q-0.9375 0.703125 -0.9375 1.921875zm20.032013 -7.484375q3.5625 0 5.484375 1.75q1.921875 1.734375 1.921875 4.828125q0 3.09375 -1.859375 4.90625q-1.859375 1.796875 -5.703125 1.796875l-4.40625 0l0 -13.28125l4.5625 0zm5.140625 6.625q0 -4.546875 -5.21875 -4.546875l-2.25 0l0 9.09375l2.5 0q2.40625 0 3.6875 -1.140625q1.28125 -1.15625 1.28125 -3.40625zm6.7141876 6.65625l-2.140625 0l0 -10.109375l2.140625 0l0 10.109375zm-2.0 -12.109375q-0.40625 -0.40625 -0.40625 -0.953125q0 -0.5625 0.40625 -0.953125q0.40625 -0.40625 0.953125 -0.40625q0.546875 0 0.9375 0.40625q0.40625 0.390625 0.40625 0.953125q0 0.546875 -0.40625 0.953125q-0.390625 0.390625 -0.9375 0.390625q-0.546875 0 -0.953125 -0.390625zm12.174316 9.09375q0 1.4375 -1.046875 2.3125q-1.03125 0.859375 -2.671875 0.859375q-1.109375 0 -2.296875 -0.390625q-1.1875 -0.40625 -2.09375 -1.140625l1.03125 -1.640625q1.765625 1.328125 3.421875 1.328125q0.71875 0 1.125 -0.328125q0.421875 -0.34375 0.421875 -0.859375q0 -0.75 -2.015625 -1.359375q-0.140625 -0.0625 -0.21875 -0.078125q-3.15625 -0.859375 -3.15625 -2.84375q0 -1.40625 1.09375 -2.25q1.09375 -0.859375 2.84375 -0.859375q1.75 0 3.296875 1.03125l-0.796875 1.578125q-1.234375 -0.8125 -2.671875 -0.8125q-0.765625 0 -1.25 0.28125q-0.46875 0.265625 -0.46875 0.8125q0 0.5 0.5 0.71875q0.34375 0.171875 0.953125 0.328125q0.625 0.15625 1.09375 0.3125q0.484375 0.140625 0.921875 0.34375q0.453125 0.1875 0.96875 0.515625q1.015625 0.6875 1.015625 2.140625zm4.8619385 -5.375l0 5.125q0 0.71875 0.375 1.15625q0.390625 0.421875 1.0625 0.421875q0.6875 0 1.328125 -0.671875l0.875 1.5q-1.125 1.015625 -2.484375 1.015625q-1.359375 0 -2.328125 -0.9375q-0.953125 -0.953125 -0.953125 -2.546875l0 -5.0625l-1.265625 0l0 -1.71875l1.265625 0l0 -3.171875l2.125 0l0 3.171875l2.671875 0l0 1.71875l-2.671875 0zm13.376434 8.390625l-1.9375 0l0 -1.34375q-1.265625 1.5 -3.375 1.5q-1.578125 0 -2.609375 -0.890625q-1.03125 -0.90625 -1.03125 -2.390625q0 -1.484375 1.09375 -2.21875q1.109375 -0.75 2.984375 -0.75l2.765625 0l0 -0.390625q0 -2.015625 -2.25 -2.015625q-1.40625 0 -2.921875 1.03125l-0.953125 -1.328125q1.84375 -1.46875 4.1875 -1.46875q1.78125 0 2.90625 0.90625q1.140625 0.90625 1.140625 2.84375l0 6.515625zm-2.140625 -3.765625l0 -0.84375l-2.390625 0q-2.296875 0 -2.296875 1.4375q0 0.734375 0.5625 1.125q0.578125 0.390625 1.59375 0.390625q1.015625 0 1.765625 -0.5625q0.765625 -0.578125 0.765625 -1.546875zm7.0293427 -1.703125l0 5.46875l-2.140625 0l0 -10.109375l2.140625 0l0 1.84375q0.515625 -0.9375 1.40625 -1.46875q0.90625 -0.53125 1.953125 -0.53125q1.703125 0 2.75 1.046875q1.0625 1.046875 1.0625 3.03125l0 6.1875l-2.125 0l0 -5.546875q0 -2.796875 -2.3125 -2.796875q-1.109375 0 -1.921875 0.734375q-0.8125 0.734375 -0.8125 2.140625zm14.395691 5.625q-2.109375 0 -3.625 -1.4375q-1.515625 -1.4375 -1.515625 -3.75q0 -2.328125 1.578125 -3.78125q1.59375 -1.453125 3.875 -1.453125q2.28125 0 3.859375 1.578125l-1.25 1.546875q-1.3125 -1.140625 -2.65625 -1.140625q-1.328125 0 -2.3125 0.890625q-0.96875 0.875 -0.96875 2.28125q0 1.390625 0.96875 2.359375q0.96875 0.96875 2.375 0.96875q1.421875 0 2.6875 -1.296875l1.25 1.375q-1.84375 1.859375 -4.265625 1.859375zm15.667877 -4.28125l-7.921875 0q0.078125 1.109375 1.0 1.78125q0.9375 0.671875 2.140625 0.671875q1.90625 0 2.890625 -1.203125l1.21875 1.34375q-1.640625 1.6875 -4.265625 1.6875q-2.125 0 -3.625 -1.40625q-1.484375 -1.421875 -1.484375 -3.8125q0 -2.390625 1.515625 -3.796875q1.53125 -1.40625 3.59375 -1.40625q2.0625 0 3.5 1.25q1.4375 1.25 1.4375 3.421875l0 1.46875zm-7.921875 -1.671875l5.796875 0q0 -1.265625 -0.796875 -1.953125q-0.796875 -0.6875 -1.96875 -0.6875q-1.15625 0 -2.09375 0.71875q-0.9375 0.703125 -0.9375 1.921875z" fill-rule="nonzero"></path><path fill="#000000" d="m143.40802 238.56793q1.359375 -1.359375 1.921875 -2.140625q0.578125 -0.78125 0.578125 -1.578125q0 -0.796875 -0.609375 -1.359375q-0.609375 -0.5625 -1.546875 -0.5625q-1.625 0 -2.71875 1.671875l-1.796875 -1.046875q0.875 -1.3125 1.921875 -1.96875q1.0625 -0.671875 2.71875 -0.671875q1.671875 0 2.921875 1.0625q1.25 1.046875 1.25 2.875q0 1.03125 -0.53125 1.96875q-0.53125 0.921875 -1.953125 2.390625l-3.125 3.171875l6.03125 0l0 2.140625l-9.078125 0l0 -1.90625l4.015625 -4.046875zm9.926041 -4.359375q-0.78125 1.359375 -0.78125 3.59375q0 2.21875 0.78125 3.59375q0.796875 1.359375 2.46875 1.359375q1.671875 0 2.4375 -1.359375q0.78125 -1.359375 0.78125 -3.59375q0 -2.25 -0.78125 -3.609375q-0.765625 -1.359375 -2.4375 -1.359375q-1.671875 0 -2.46875 1.375zm-1.59375 8.59375q-1.34375 -1.875 -1.34375 -5.0q0 -3.140625 1.34375 -5.015625q1.34375 -1.875 4.0625 -1.875q2.71875 0 4.0625 1.875q1.359375 1.875 1.359375 5.015625q0 3.125 -1.359375 5.0q-1.34375 1.875 -4.0625 1.875q-2.71875 0 -4.0625 -1.875zm21.494202 1.875q-2.109375 0 -3.625 -1.4375q-1.515625 -1.4375 -1.515625 -3.75q0 -2.328125 1.578125 -3.78125q1.59375 -1.453125 3.875 -1.453125q2.28125 0 3.859375 1.578125l-1.25 1.546875q-1.3125 -1.140625 -2.65625 -1.140625q-1.328125 0 -2.3125 0.890625q-0.96875 0.875 -0.96875 2.28125q0 1.390625 0.96875 2.359375q0.96875 0.96875 2.375 0.96875q1.421875 0 2.6875 -1.296875l1.25 1.375q-1.84375 1.859375 -4.265625 1.859375zm8.402252 -5.625l0 5.46875l-2.140625 0l0 -10.109375l2.140625 0l0 1.84375q0.453125 -0.9375 1.375 -1.46875q0.921875 -0.53125 1.984375 -0.53125q2.390625 0 3.25 1.984375q1.5 -1.984375 3.734375 -1.984375q1.71875 0 2.765625 1.046875q1.0625 1.046875 1.0625 3.03125l0 6.1875l-2.125 0l0 -5.546875q0 -2.796875 -2.328125 -2.796875q-1.078125 0 -1.890625 0.703125q-0.796875 0.6875 -0.84375 2.015625l0 5.625l-2.125 0l0 -5.546875q0 -1.4375 -0.515625 -2.109375q-0.515625 -0.6875 -1.625 -0.6875q-1.09375 0 -1.90625 0.734375q-0.8125 0.734375 -0.8125 2.140625z" fill-rule="nonzero"></path><path fill="#000000" fill-opacity="0.0" d="m19.501312 161.28871l0 0c0 -5.7804565 3.6252308 -11.324173 10.078184 -15.411591c6.4529514 -4.0874023 15.205034 -6.3836823 24.330889 -6.3836823l127.30296 0c19.003601 0 34.409073 -9.758072 34.409073 -21.795273l0 0c0 12.037201 15.405457 21.795273 34.409073 21.795273l657.20245 0c19.003601 0 34.40912 9.758072 34.40912 21.795273z" fill-rule="nonzero"></path><path fill="#000000" fill-opacity="0.0" d="m19.501312 161.28871l0 0c0 -5.7804565 3.6252308 -11.324173 10.078184 -15.411591c6.4529514 -4.0874023 15.205034 -6.3836823 24.330889 -6.3836823l127.30296 0c19.003601 0 34.409073 -9.758072 34.409073 -21.795273l0 0c0 12.037201 15.405457 21.795273 34.409073 21.795273l657.20245 0c19.003601 0 34.40912 9.758072 34.40912 21.795273" fill-rule="nonzero"></path><path stroke="#000000" stroke-width="2.0" stroke-linejoin="round" stroke-linecap="butt" d="m19.501312 161.28871l0 0c0 -5.7804565 3.6252308 -11.324173 10.078184 -15.411591c6.4529514 -4.0874023 15.205034 -6.3836823 24.330889 -6.3836823l127.30296 0c19.003601 0 34.409073 -9.758072 34.409073 -21.795273l0 0c0 12.037201 15.405457 21.795273 34.409073 21.795273l657.20245 0c19.003601 0 34.40912 9.758072 34.40912 21.795273" fill-rule="nonzero"></path><path fill="#9fc5e8" d="m333.6243 178.42783l296.1575 0l0 96.346466l-296.1575 0z" fill-rule="nonzero"></path><path fill="#000000" d="m419.12595 220.48979q1.15625 0 1.984375 -0.390625q0.84375 -0.390625 1.75 -1.25l1.453125 1.484375q-2.109375 2.34375 -5.125 2.34375q-3.015625 0 -5.0 -1.9375q-1.984375 -1.9375 -1.984375 -4.90625q0 -2.96875 2.015625 -4.9375q2.03125 -1.984375 5.109375 -1.984375q3.09375 0 5.171875 2.28125l-1.421875 1.5625q-0.953125 -0.90625 -1.796875 -1.265625q-0.84375 -0.375 -1.984375 -0.375q-2.015625 0 -3.390625 1.3125q-1.359375 1.296875 -1.359375 3.328125q0 2.015625 1.359375 3.375q1.359375 1.359375 3.21875 1.359375zm9.496613 2.03125l-2.140625 0l0 -10.109375l2.140625 0l0 10.109375zm-2.0 -12.109375q-0.40625 -0.40625 -0.40625 -0.953125q0 -0.5625 0.40625 -0.953125q0.40625 -0.40625 0.953125 -0.40625q0.546875 0 0.9375 0.40625q0.40625 0.390625 0.40625 0.953125q0 0.546875 -0.40625 0.953125q-0.390625 0.390625 -0.9375 0.390625q-0.546875 0 -0.953125 -0.390625zm10.283691 4.0q-1.578125 0 -2.375 1.03125q-0.796875 1.015625 -0.796875 2.75l0 4.328125l-2.140625 0l0 -10.109375l2.140625 0l0 2.03125q0.515625 -0.953125 1.390625 -1.546875q0.890625 -0.609375 1.875 -0.640625l0.015625 2.15625q-0.0625 0 -0.109375 0zm6.57843 8.265625q-2.109375 0 -3.625 -1.4375q-1.515625 -1.4375 -1.515625 -3.75q0 -2.328125 1.578125 -3.78125q1.59375 -1.453125 3.875 -1.453125q2.28125 0 3.859375 1.578125l-1.25 1.546875q-1.3125 -1.140625 -2.65625 -1.140625q-1.328125 0 -2.3125 0.890625q-0.96875 0.875 -0.96875 2.28125q0 1.390625 0.96875 2.359375q0.96875 0.96875 2.375 0.96875q1.421875 0 2.6875 -1.296875l1.25 1.375q-1.84375 1.859375 -4.265625 1.859375zm8.402252 -0.15625l-2.140625 0l0 -14.09375l2.140625 0l0 14.09375zm12.377441 -4.125l-7.921875 0q0.078125 1.109375 1.0 1.78125q0.9375 0.671875 2.140625 0.671875q1.90625 0 2.890625 -1.203125l1.21875 1.34375q-1.640625 1.6875 -4.265625 1.6875q-2.125 0 -3.625 -1.40625q-1.484375 -1.421875 -1.484375 -3.8125q0 -2.390625 1.515625 -3.796875q1.53125 -1.40625 3.59375 -1.40625q2.0625 0 3.5 1.25q1.4375 1.25 1.4375 3.421875l0 1.46875zm-7.921875 -1.671875l5.796875 0q0 -1.265625 -0.796875 -1.953125q-0.796875 -0.6875 -1.96875 -0.6875q-1.15625 0 -2.09375 0.71875q-0.9375 0.703125 -0.9375 1.921875zm20.032013 -7.484375q3.5625 0 5.484375 1.75q1.921875 1.734375 1.921875 4.828125q0 3.09375 -1.859375 4.90625q-1.859375 1.796875 -5.703125 1.796875l-4.40625 0l0 -13.28125l4.5625 0zm5.140625 6.625q0 -4.546875 -5.21875 -4.546875l-2.25 0l0 9.09375l2.5 0q2.40625 0 3.6875 -1.140625q1.28125 -1.15625 1.28125 -3.40625zm6.7141724 6.65625l-2.140625 0l0 -10.109375l2.140625 0l0 10.109375zm-2.0 -12.109375q-0.40625 -0.40625 -0.40625 -0.953125q0 -0.5625 0.40625 -0.953125q0.40625 -0.40625 0.953125 -0.40625q0.546875 0 0.9375 0.40625q0.40625 0.390625 0.40625 0.953125q0 0.546875 -0.40625 0.953125q-0.390625 0.390625 -0.9375 0.390625q-0.546875 0 -0.953125 -0.390625zm12.174316 9.09375q0 1.4375 -1.046875 2.3125q-1.03125 0.859375 -2.671875 0.859375q-1.109375 0 -2.296875 -0.390625q-1.1875 -0.40625 -2.09375 -1.140625l1.03125 -1.640625q1.765625 1.328125 3.421875 1.328125q0.71875 0 1.125 -0.328125q0.421875 -0.34375 0.421875 -0.859375q0 -0.75 -2.015625 -1.359375q-0.140625 -0.0625 -0.21875 -0.078125q-3.15625 -0.859375 -3.15625 -2.84375q0 -1.40625 1.09375 -2.25q1.09375 -0.859375 2.84375 -0.859375q1.75 0 3.296875 1.03125l-0.796875 1.578125q-1.234375 -0.8125 -2.671875 -0.8125q-0.765625 0 -1.25 0.28125q-0.46875 0.265625 -0.46875 0.8125q0 0.5 0.5 0.71875q0.34375 0.171875 0.953125 0.328125q0.625 0.15625 1.09375 0.3125q0.484375 0.140625 0.921875 0.34375q0.453125 0.1875 0.96875 0.515625q1.015625 0.6875 1.015625 2.140625zm4.8619385 -5.375l0 5.125q0 0.71875 0.375 1.15625q0.390625 0.421875 1.0625 0.421875q0.6875 0 1.328125 -0.671875l0.875 1.5q-1.125 1.015625 -2.484375 1.015625q-1.359375 0 -2.328125 -0.9375q-0.953125 -0.953125 -0.953125 -2.546875l0 -5.0625l-1.265625 0l0 -1.71875l1.265625 0l0 -3.171875l2.125 0l0 3.171875l2.671875 0l0 1.71875l-2.671875 0zm13.376465 8.390625l-1.9375 0l0 -1.34375q-1.265625 1.5 -3.3750305 1.5q-1.578125 0 -2.609375 -0.890625q-1.03125 -0.90625 -1.03125 -2.390625q0 -1.484375 1.09375 -2.21875q1.109375 -0.75 2.984375 -0.75l2.7656555 0l0 -0.390625q0 -2.015625 -2.25 -2.015625q-1.4062805 0 -2.9219055 1.03125l-0.953125 -1.328125q1.84375 -1.46875 4.1875305 -1.46875q1.78125 0 2.90625 0.90625q1.140625 0.90625 1.140625 2.84375l0 6.515625zm-2.140625 -3.765625l0 -0.84375l-2.390625 0q-2.2969055 0 -2.2969055 1.4375q0 0.734375 0.5625 1.125q0.578125 0.390625 1.59375 0.390625q1.0156555 0 1.7656555 -0.5625q0.765625 -0.578125 0.765625 -1.546875zm7.029297 -1.703125l0 5.46875l-2.140625 0l0 -10.109375l2.140625 0l0 1.84375q0.515625 -0.9375 1.40625 -1.46875q0.90625 -0.53125 1.953125 -0.53125q1.703125 0 2.75 1.046875q1.0625 1.046875 1.0625 3.03125l0 6.1875l-2.125 0l0 -5.546875q0 -2.796875 -2.3125 -2.796875q-1.109375 0 -1.921875 0.734375q-0.8125 0.734375 -0.8125 2.140625zm14.395691 5.625q-2.109375 0 -3.625 -1.4375q-1.515625 -1.4375 -1.515625 -3.75q0 -2.328125 1.578125 -3.78125q1.59375 -1.453125 3.875 -1.453125q2.28125 0 3.859375 1.578125l-1.25 1.546875q-1.3125 -1.140625 -2.65625 -1.140625q-1.328125 0 -2.3125 0.890625q-0.96875 0.875 -0.96875 2.28125q0 1.390625 0.96875 2.359375q0.96875 0.96875 2.375 0.96875q1.421875 0 2.6875 -1.296875l1.25 1.375q-1.84375 1.859375 -4.265625 1.859375zm15.667908 -4.28125l-7.921875 0q0.078125 1.109375 1.0 1.78125q0.9375 0.671875 2.140625 0.671875q1.90625 0 2.890625 -1.203125l1.21875 1.34375q-1.640625 1.6875 -4.265625 1.6875q-2.125 0 -3.625 -1.40625q-1.484375 -1.421875 -1.484375 -3.8125q0 -2.390625 1.515625 -3.796875q1.53125 -1.40625 3.59375 -1.40625q2.0625 0 3.5 1.25q1.4375 1.25 1.4375 3.421875l0 1.46875zm-7.921875 -1.671875l5.796875 0q0 -1.265625 -0.796875 -1.953125q-0.796875 -0.6875 -1.96875 -0.6875q-1.15625 0 -2.09375 0.71875q-0.9375 0.703125 -0.9375 1.921875z" fill-rule="nonzero"></path><path fill="#000000" d="m453.97473 233.2398l0 -2.0l7.765625 0l0 1.75l-3.21875 3.59375q1.828125 0.046875 2.859375 1.140625q1.03125 1.09375 1.03125 2.609375q0 2.046875 -1.390625 3.203125q-1.375 1.15625 -3.546875 1.15625q-2.15625 0 -4.234375 -1.390625l0.953125 -1.796875q1.640625 1.140625 3.421875 1.140625q1.15625 0 1.90625 -0.546875q0.75 -0.546875 0.75 -1.5625q0 -1.015625 -0.84375 -1.625q-0.828125 -0.609375 -2.3125 -0.609375q-0.734375 0 -1.421875 0.21875l0 -1.71875l3.078125 -3.5625l-4.796875 0zm13.377075 0.96875q-0.78125 1.359375 -0.78125 3.59375q0 2.21875 0.78125 3.59375q0.796875 1.359375 2.46875 1.359375q1.671875 0 2.4375 -1.359375q0.78125 -1.359375 0.78125 -3.59375q0 -2.25 -0.78125 -3.609375q-0.765625 -1.359375 -2.4375 -1.359375q-1.671875 0 -2.46875 1.375zm-1.59375 8.59375q-1.34375 -1.875 -1.34375 -5.0q0 -3.140625 1.34375 -5.015625q1.34375 -1.875 4.0625 -1.875q2.71875 0 4.0625 1.875q1.359375 1.875 1.359375 5.015625q0 3.125 -1.359375 5.0q-1.34375 1.875 -4.0625 1.875q-2.71875 0 -4.0625 -1.875zm21.494202 1.875q-2.109375 0 -3.625 -1.4375q-1.515625 -1.4375 -1.515625 -3.75q0 -2.328125 1.578125 -3.78125q1.59375 -1.453125 3.875 -1.453125q2.28125 0 3.859375 1.578125l-1.25 1.546875q-1.3125 -1.140625 -2.65625 -1.140625q-1.328125 0 -2.3125 0.890625q-0.96875 0.875 -0.96875 2.28125q0 1.390625 0.96875 2.359375q0.96875 0.96875 2.375 0.96875q1.421875 0 2.6875 -1.296875l1.25 1.375q-1.84375 1.859375 -4.265625 1.859375zm8.402252 -5.625l0 5.46875l-2.140625 0l0 -10.109375l2.140625 0l0 1.84375q0.453125 -0.9375 1.375 -1.46875q0.921875 -0.53125 1.984375 -0.53125q2.390625 0 3.25 1.984375q1.5 -1.984375 3.734375 -1.984375q1.71875 0 2.765625 1.046875q1.0625 1.046875 1.0625 3.03125l0 6.1875l-2.125 0l0 -5.546875q0 -2.796875 -2.328125 -2.796875q-1.078125 0 -1.890625 0.703125q-0.796875 0.6875 -0.84375 2.015625l0 5.625l-2.125 0l0 -5.546875q0 -1.4375 -0.515625 -2.109375q-0.515625 -0.6875 -1.625 -0.6875q-1.09375 0 -1.90625 0.734375q-0.8125 0.734375 -0.8125 2.140625z" fill-rule="nonzero"></path><path fill="#9fc5e8" d="m647.7452 178.42783l296.15747 0l0 96.346466l-296.15747 0z" fill-rule="nonzero"></path><path fill="#000000" d="m733.2468 220.48979q1.15625 0 1.984375 -0.390625q0.84375 -0.390625 1.75 -1.25l1.453125 1.484375q-2.109375 2.34375 -5.125 2.34375q-3.015625 0 -5.0 -1.9375q-1.984375 -1.9375 -1.984375 -4.90625q0 -2.96875 2.015625 -4.9375q2.03125 -1.984375 5.109375 -1.984375q3.09375 0 5.171875 2.28125l-1.421875 1.5625q-0.953125 -0.90625 -1.796875 -1.265625q-0.84375 -0.375 -1.984375 -0.375q-2.015625 0 -3.390625 1.3125q-1.359375 1.296875 -1.359375 3.328125q0 2.015625 1.359375 3.375q1.359375 1.359375 3.21875 1.359375zm9.496643 2.03125l-2.140625 0l0 -10.109375l2.140625 0l0 10.109375zm-2.0 -12.109375q-0.40625 -0.40625 -0.40625 -0.953125q0 -0.5625 0.40625 -0.953125q0.40625 -0.40625 0.953125 -0.40625q0.546875 0 0.9375 0.40625q0.40625 0.390625 0.40625 0.953125q0 0.546875 -0.40625 0.953125q-0.390625 0.390625 -0.9375 0.390625q-0.546875 0 -0.953125 -0.390625zm10.283691 4.0q-1.578125 0 -2.375 1.03125q-0.796875 1.015625 -0.796875 2.75l0 4.328125l-2.140625 0l0 -10.109375l2.140625 0l0 2.03125q0.515625 -0.953125 1.390625 -1.546875q0.890625 -0.609375 1.875 -0.640625l0.015625 2.15625q-0.0625 0 -0.109375 0zm6.57843 8.265625q-2.109375 0 -3.625 -1.4375q-1.515625 -1.4375 -1.515625 -3.75q0 -2.328125 1.578125 -3.78125q1.59375 -1.453125 3.875 -1.453125q2.28125 0 3.859375 1.578125l-1.25 1.546875q-1.3125 -1.140625 -2.65625 -1.140625q-1.328125 0 -2.3125 0.890625q-0.96875 0.875 -0.96875 2.28125q0 1.390625 0.96875 2.359375q0.96875 0.96875 2.375 0.96875q1.421875 0 2.6875 -1.296875l1.25 1.375q-1.84375 1.859375 -4.265625 1.859375zm8.402222 -0.15625l-2.140625 0l0 -14.09375l2.140625 0l0 14.09375zm12.377441 -4.125l-7.921875 0q0.078125 1.109375 1.0 1.78125q0.9375 0.671875 2.140625 0.671875q1.90625 0 2.890625 -1.203125l1.21875 1.34375q-1.640625 1.6875 -4.265625 1.6875q-2.125 0 -3.625 -1.40625q-1.484375 -1.421875 -1.484375 -3.8125q0 -2.390625 1.515625 -3.796875q1.53125 -1.40625 3.59375 -1.40625q2.0625 0 3.5 1.25q1.4375 1.25 1.4375 3.421875l0 1.46875zm-7.921875 -1.671875l5.796875 0q0 -1.265625 -0.796875 -1.953125q-0.796875 -0.6875 -1.96875 -0.6875q-1.15625 0 -2.09375 0.71875q-0.9375 0.703125 -0.9375 1.921875zm20.032043 -7.484375q3.5625 0 5.484375 1.75q1.921875 1.734375 1.921875 4.828125q0 3.09375 -1.859375 4.90625q-1.859375 1.796875 -5.703125 1.796875l-4.40625 0l0 -13.28125l4.5625 0zm5.140625 6.625q0 -4.546875 -5.21875 -4.546875l-2.25 0l0 9.09375l2.5 0q2.40625 0 3.6875 -1.140625q1.28125 -1.15625 1.28125 -3.40625zm6.7141724 6.65625l-2.140625 0l0 -10.109375l2.140625 0l0 10.109375zm-2.0 -12.109375q-0.40625 -0.40625 -0.40625 -0.953125q0 -0.5625 0.40625 -0.953125q0.40625 -0.40625 0.953125 -0.40625q0.546875 0 0.9375 0.40625q0.40625 0.390625 0.40625 0.953125q0 0.546875 -0.40625 0.953125q-0.390625 0.390625 -0.9375 0.390625q-0.546875 0 -0.953125 -0.390625zm12.174316 9.09375q0 1.4375 -1.046875 2.3125q-1.03125 0.859375 -2.671875 0.859375q-1.109375 0 -2.296875 -0.390625q-1.1875 -0.40625 -2.09375 -1.140625l1.03125 -1.640625q1.765625 1.328125 3.421875 1.328125q0.71875 0 1.125 -0.328125q0.421875 -0.34375 0.421875 -0.859375q0 -0.75 -2.015625 -1.359375q-0.140625 -0.0625 -0.21875 -0.078125q-3.15625 -0.859375 -3.15625 -2.84375q0 -1.40625 1.09375 -2.25q1.09375 -0.859375 2.84375 -0.859375q1.75 0 3.296875 1.03125l-0.796875 1.578125q-1.234375 -0.8125 -2.671875 -0.8125q-0.765625 0 -1.25 0.28125q-0.46875 0.265625 -0.46875 0.8125q0 0.5 0.5 0.71875q0.34375 0.171875 0.953125 0.328125q0.625 0.15625 1.09375 0.3125q0.484375 0.140625 0.921875 0.34375q0.453125 0.1875 0.96875 0.515625q1.015625 0.6875 1.015625 2.140625zm4.8619385 -5.375l0 5.125q0 0.71875 0.375 1.15625q0.390625 0.421875 1.0625 0.421875q0.6875 0 1.328125 -0.671875l0.875 1.5q-1.125 1.015625 -2.484375 1.015625q-1.359375 0 -2.328125 -0.9375q-0.953125 -0.953125 -0.953125 -2.546875l0 -5.0625l-1.265625 0l0 -1.71875l1.265625 0l0 -3.171875l2.125 0l0 3.171875l2.671875 0l0 1.71875l-2.671875 0zm13.376404 8.390625l-1.9375 0l0 -1.34375q-1.265625 1.5 -3.375 1.5q-1.578125 0 -2.609375 -0.890625q-1.03125 -0.90625 -1.03125 -2.390625q0 -1.484375 1.09375 -2.21875q1.109375 -0.75 2.984375 -0.75l2.765625 0l0 -0.390625q0 -2.015625 -2.25 -2.015625q-1.40625 0 -2.921875 1.03125l-0.953125 -1.328125q1.84375 -1.46875 4.1875 -1.46875q1.78125 0 2.90625 0.90625q1.140625 0.90625 1.140625 2.84375l0 6.515625zm-2.140625 -3.765625l0 -0.84375l-2.390625 0q-2.296875 0 -2.296875 1.4375q0 0.734375 0.5625 1.125q0.578125 0.390625 1.59375 0.390625q1.015625 0 1.765625 -0.5625q0.765625 -0.578125 0.765625 -1.546875zm7.029358 -1.703125l0 5.46875l-2.140625 0l0 -10.109375l2.140625 0l0 1.84375q0.515625 -0.9375 1.40625 -1.46875q0.90625 -0.53125 1.953125 -0.53125q1.703125 0 2.75 1.046875q1.0625 1.046875 1.0625 3.03125l0 6.1875l-2.125 0l0 -5.546875q0 -2.796875 -2.3125 -2.796875q-1.109375 0 -1.921875 0.734375q-0.8125 0.734375 -0.8125 2.140625zm14.395691 5.625q-2.109375 0 -3.625 -1.4375q-1.515625 -1.4375 -1.515625 -3.75q0 -2.328125 1.578125 -3.78125q1.59375 -1.453125 3.875 -1.453125q2.28125 0 3.859375 1.578125l-1.25 1.546875q-1.3125 -1.140625 -2.65625 -1.140625q-1.328125 0 -2.3125 0.890625q-0.96875 0.875 -0.96875 2.28125q0 1.390625 0.96875 2.359375q0.96875 0.96875 2.375 0.96875q1.421875 0 2.6875 -1.296875l1.25 1.375q-1.84375 1.859375 -4.265625 1.859375zm15.667908 -4.28125l-7.921875 0q0.078125 1.109375 1.0 1.78125q0.9375 0.671875 2.140625 0.671875q1.90625 0 2.890625 -1.203125l1.21875 1.34375q-1.640625 1.6875 -4.265625 1.6875q-2.125 0 -3.625 -1.40625q-1.484375 -1.421875 -1.484375 -3.8125q0 -2.390625 1.515625 -3.796875q1.53125 -1.40625 3.59375 -1.40625q2.0625 0 3.5 1.25q1.4375 1.25 1.4375 3.421875l0 1.46875zm-7.921875 -1.671875l5.796875 0q0 -1.265625 -0.796875 -1.953125q-0.796875 -0.6875 -1.96875 -0.6875q-1.15625 0 -2.09375 0.71875q-0.9375 0.703125 -0.9375 1.921875z" fill-rule="nonzero"></path><path fill="#000000" d="m773.0891 239.14606l0 -2.4375l2.125 0l0 2.4375l1.59375 0l0 2.03125l-1.59375 0l0 3.34375l-2.125 0l0 -3.34375l-5.703125 0l0 -1.96875l4.890625 -7.96875l2.4375 0l-4.796875 7.90625l3.171875 0zm8.327637 -4.9375q-0.78125 1.359375 -0.78125 3.59375q0 2.21875 0.78125 3.59375q0.796875 1.359375 2.46875 1.359375q1.671875 0 2.4375 -1.359375q0.78125 -1.359375 0.78125 -3.59375q0 -2.25 -0.78125 -3.609375q-0.765625 -1.359375 -2.4375 -1.359375q-1.671875 0 -2.46875 1.375zm-1.59375 8.59375q-1.34375 -1.875 -1.34375 -5.0q0 -3.140625 1.34375 -5.015625q1.34375 -1.875 4.0625 -1.875q2.71875 0 4.0625 1.875q1.359375 1.875 1.359375 5.015625q0 3.125 -1.359375 5.0q-1.34375 1.875 -4.0625 1.875q-2.71875 0 -4.0625 -1.875zm21.494202 1.875q-2.109375 0 -3.625 -1.4375q-1.515625 -1.4375 -1.515625 -3.75q0 -2.328125 1.578125 -3.78125q1.59375 -1.453125 3.875 -1.453125q2.28125 0 3.859375 1.578125l-1.25 1.546875q-1.3125 -1.140625 -2.65625 -1.140625q-1.328125 0 -2.3125 0.890625q-0.96875 0.875 -0.96875 2.28125q0 1.390625 0.96875 2.359375q0.96875 0.96875 2.375 0.96875q1.421875 0 2.6875 -1.296875l1.25 1.375q-1.84375 1.859375 -4.265625 1.859375zm8.402222 -5.625l0 5.46875l-2.140625 0l0 -10.109375l2.140625 0l0 1.84375q0.453125 -0.9375 1.375 -1.46875q0.921875 -0.53125 1.984375 -0.53125q2.390625 0 3.25 1.984375q1.5 -1.984375 3.734375 -1.984375q1.71875 0 2.765625 1.046875q1.0625 1.046875 1.0625 3.03125l0 6.1875l-2.125 0l0 -5.546875q0 -2.796875 -2.328125 -2.796875q-1.078125 0 -1.890625 0.703125q-0.796875 0.6875 -0.84375 2.015625l0 5.625l-2.125 0l0 -5.546875q0 -1.4375 -0.515625 -2.109375q-0.515625 -0.6875 -1.625 -0.6875q-1.09375 0 -1.90625 0.734375q-0.8125 0.734375 -0.8125 2.140625z" fill-rule="nonzero"></path><path fill="#cfe2f3" d="m19.506632 352.64304l162.17322 0l0 96.346466l-162.17322 0z" fill-rule="nonzero"></path><path fill="#000000" d="m44.65033 396.73627l-5.8125 0l0 -13.28125l5.171875 0q1.34375 0 2.3125 0.328125q0.984375 0.3125 1.46875 0.875q0.90625 1.015625 0.90625 2.3125q0 1.5625 -0.984375 2.3125q-0.359375 0.265625 -0.5 0.34375q-0.125 0.0625 -0.46875 0.21875q1.234375 0.265625 1.953125 1.109375q0.734375 0.84375 0.734375 2.09375q0 1.390625 -0.9375 2.453125q-1.125 1.234375 -3.84375 1.234375zm-3.578125 -7.765625l2.859375 0q2.421875 0 2.421875 -1.65625q0 -0.953125 -0.59375 -1.359375q-0.578125 -0.421875 -1.8125 -0.421875l-2.875 0l0 3.4375zm0 5.6875l3.515625 0q1.234375 0 1.890625 -0.375q0.65625 -0.390625 0.65625 -1.484375q0 -1.765625 -2.828125 -1.765625l-3.234375 0l0 3.625zm17.70256 -2.5625l0 -5.46875l2.125 0l0 10.109375l-2.125 0l0 -1.84375q-0.515625 0.9375 -1.421875 1.46875q-0.90625 0.53125 -1.9375 0.53125q-1.71875 0 -2.78125 -1.046875q-1.046875 -1.046875 -1.046875 -3.015625l0 -6.203125l2.125 0l0 5.546875q0 2.796875 2.328125 2.796875q1.09375 0 1.90625 -0.734375q0.828125 -0.734375 0.828125 -2.140625zm7.598816 -3.75l0 5.125q0 0.71875 0.375 1.15625q0.390625 0.421875 1.0625 0.421875q0.6875 0 1.328125 -0.671875l0.875 1.5q-1.125 1.015625 -2.484375 1.015625q-1.359375 0 -2.328125 -0.9375q-0.953125 -0.953125 -0.953125 -2.546875l0 -5.0625l-1.265625 0l0 -1.71875l1.265625 0l0 -3.171875l2.125 0l0 3.171875l2.671875 0l0 1.71875l-2.671875 0zm7.7983093 0l0 5.125q0 0.71875 0.375 1.15625q0.390625 0.421875 1.0625 0.421875q0.6875 0 1.328125 -0.671875l0.875 1.5q-1.125 1.015625 -2.484375 1.015625q-1.359375 0 -2.328125 -0.9375q-0.953125 -0.953125 -0.953125 -2.546875l0 -5.0625l-1.265625 0l0 -1.71875l1.265625 0l0 -3.171875l2.125 0l0 3.171875l2.671875 0l0 1.71875l-2.671875 0zm7.5483093 5.71875q0.90625 0.921875 2.28125 0.921875q1.390625 0 2.296875 -0.921875q0.90625 -0.921875 0.90625 -2.375q0 -1.46875 -0.90625 -2.390625q-0.90625 -0.921875 -2.296875 -0.921875q-1.375 0 -2.28125 0.921875q-0.90625 0.921875 -0.90625 2.390625q0 1.453125 0.90625 2.375zm6.078125 1.3125q-1.515625 1.515625 -3.796875 1.515625q-2.28125 0 -3.796875 -1.515625q-1.515625 -1.515625 -1.515625 -3.6875q0 -2.1875 1.515625 -3.703125q1.515625 -1.515625 3.796875 -1.515625q2.28125 0 3.796875 1.515625q1.53125 1.515625 1.53125 3.703125q0 2.171875 -1.53125 3.6875zm5.8513794 -4.109375l0 5.46875l-2.140625 0l0 -10.109375l2.140625 0l0 1.84375q0.515625 -0.9375 1.40625 -1.46875q0.90625 -0.53125 1.953125 -0.53125q1.703125 0 2.75 1.046875q1.0625 1.046875 1.0625 3.03125l0 6.1875l-2.125 0l0 -5.546875q0 -2.796875 -2.3125 -2.796875q-1.109375 0 -1.921875 0.734375q-0.8125 0.734375 -0.8125 2.140625zm19.476257 1.75l2.96875 -9.5625l2.015625 0l2.953125 9.5625l3.34375 -9.5625l2.421875 0l-4.640625 13.28125l-2.21875 0l-2.796875 -9.09375l-0.15625 0l-2.78125 9.09375l-2.234375 0l-4.625 -13.28125l2.40625 0l3.34375 9.5625zm17.239258 3.71875l-2.140625 0l0 -10.109375l2.140625 0l0 10.109375zm-2.0 -12.109375q-0.40625 -0.40625 -0.40625 -0.953125q0 -0.5625 0.40625 -0.953125q0.40625 -0.40625 0.953125 -0.40625q0.546875 0 0.9375 0.40625q0.40625 0.390625 0.40625 0.953125q0 0.546875 -0.40625 0.953125q-0.390625 0.390625 -0.9375 0.390625q-0.546875 0 -0.953125 -0.390625zm9.096191 12.265625q-1.90625 0 -3.34375 -1.4375q-1.421875 -1.453125 -1.421875 -3.8125q0 -2.359375 1.453125 -3.765625q1.46875 -1.40625 3.484375 -1.40625q2.03125 0 3.265625 1.71875l0 -5.546875l2.140625 0l0 14.09375l-2.140625 0l0 -1.515625q-1.171875 1.671875 -3.4375 1.671875zm-2.640625 -5.15625q0 1.453125 0.9375 2.359375q0.9375 0.90625 2.1875 0.90625q1.25 0 2.125 -0.921875q0.875 -0.921875 0.875 -2.359375q0 -1.4375 -0.875 -2.40625q-0.875 -0.96875 -2.15625 -0.96875q-1.265625 0 -2.1875 0.96875q-0.90625 0.96875 -0.90625 2.421875zm13.677643 -3.390625l0 5.125q0 0.71875 0.375 1.15625q0.390625 0.421875 1.0625 0.421875q0.6875 0 1.328125 -0.671875l0.875 1.5q-1.125 1.015625 -2.484375 1.015625q-1.359375 0 -2.3281403 -0.9375q-0.953125 -0.953125 -0.953125 -2.546875l0 -5.0625l-1.265625 0l0 -1.71875l1.265625 0l0 -3.171875l2.1250153 0l0 3.171875l2.671875 0l0 1.71875l-2.671875 0zm7.3139343 2.921875l0 5.46875l-2.140625 0l0 -14.078125l2.140625 0l0 5.8125q0.453125 -0.9375 1.375 -1.46875q0.921875 -0.53125 1.984375 -0.53125q1.703125 0 2.75 1.046875q1.0625 1.046875 1.0625 3.03125l0 6.1875l-2.125 0l0 -5.546875q0 -2.796875 -2.3125 -2.796875q-1.109375 0 -1.921875 0.734375q-0.8125 0.734375 -0.8125 2.140625z" fill-rule="nonzero"></path><path fill="#000000" d="m85.5092 405.4394l0 2.03125l-5.609375 0l0 3.265625q0.84375 -0.453125 1.90625 -0.453125q1.859375 0 3.203125 1.125q1.359375 1.109375 1.359375 3.03125q0 1.921875 -1.40625 3.1875q-1.40625 1.265625 -3.46875 1.265625q-2.671875 0 -4.265625 -1.796875l1.1875 -1.625q0.15625 0.15625 0.40625 0.359375q0.265625 0.203125 1.0625 0.5625q0.796875 0.34375 1.75 0.34375q0.953125 0 1.71875 -0.5625q0.78125 -0.578125 0.78125 -1.65625q0 -1.09375 -0.828125 -1.6875q-0.8125 -0.609375 -2.078125 -0.609375q-1.265625 0 -2.40625 0.625l-0.953125 -1.03125l0 -6.375l7.640625 0zm5.2394714 7.828125l0 5.46875l-2.140625 0l0 -10.109375l2.140625 0l0 1.84375q0.453125 -0.9375 1.375 -1.46875q0.921875 -0.53125 1.984375 -0.53125q2.390625 0 3.25 1.984375q1.5 -1.984375 3.734375 -1.984375q1.71875 0 2.765625 1.046875q1.0625 1.046875 1.0625 3.03125l0 6.1875l-2.125 0l0 -5.546875q0 -2.796875 -2.328125 -2.796875q-1.078125 0 -1.890625 0.703125q-0.796875 0.6875 -0.84375 2.015625l0 5.625l-2.125 0l0 -5.546875q0 -1.4375 -0.515625 -2.109375q-0.515625 -0.6875 -1.625 -0.6875q-1.09375 0 -1.90625 0.734375q-0.8125 0.734375 -0.8125 2.140625zm18.917435 0l0 5.46875l-2.140625 0l0 -10.109375l2.140625 0l0 1.84375q0.453125 -0.9375 1.375 -1.46875q0.921875 -0.53125 1.984375 -0.53125q2.390625 0 3.25 1.984375q1.5 -1.984375 3.734375 -1.984375q1.71875 0 2.765625 1.046875q1.0625 1.046875 1.0625 3.03125l0 6.1875l-2.125 0l0 -5.546875q0 -2.796875 -2.328125 -2.796875q-1.078125 0 -1.890625 0.703125q-0.796875 0.6875 -0.84375 2.015625l0 5.625l-2.125 0l0 -5.546875q0 -1.4375 -0.515625 -2.109375q-0.515625 -0.6875 -1.625 -0.6875q-1.09375 0 -1.90625 0.734375q-0.8125 0.734375 -0.8125 2.140625z" fill-rule="nonzero"></path><path fill="#000000" fill-opacity="0.0" d="m19.502625 335.50394l0 0c0 -5.7804565 3.6252308 -11.324188 10.078184 -15.411591c6.4529514 -4.0874023 15.205034 -6.3836975 24.330889 -6.3836975l76.84337 0c19.003601 0 34.409073 -9.758057 34.409073 -21.795258l0 0c0 12.037201 15.405457 21.795258 34.409073 21.795258l707.6621 0c19.003601 0 34.409058 9.758087 34.409058 21.795288z" fill-rule="nonzero"></path><path fill="#000000" fill-opacity="0.0" d="m19.502625 335.50394l0 0c0 -5.7804565 3.6252308 -11.324188 10.078184 -15.411591c6.4529514 -4.0874023 15.205034 -6.3836975 24.330889 -6.3836975l76.84337 0c19.003601 0 34.409073 -9.758057 34.409073 -21.795258l0 0c0 12.037201 15.405457 21.795258 34.409073 21.795258l707.6621 0c19.003601 0 34.409058 9.758087 34.409058 21.795288" fill-rule="nonzero"></path><path stroke="#000000" stroke-width="2.0" stroke-linejoin="round" stroke-linecap="butt" d="m19.502625 335.50394l0 0c0 -5.7804565 3.6252308 -11.324188 10.078184 -15.411591c6.4529514 -4.0874023 15.205034 -6.3836975 24.330889 -6.3836975l76.84337 0c19.003601 0 34.409073 -9.758057 34.409073 -21.795258l0 0c0 12.037201 15.405457 21.795258 34.409073 21.795258l707.6621 0c19.003601 0 34.409058 9.758087 34.409058 21.795288" fill-rule="nonzero"></path><path fill="#cfe2f3" d="m399.4917 352.64304l162.17322 0l0 96.346466l-162.17322 0z" fill-rule="nonzero"></path><path fill="#000000" d="m424.63538 396.73627l-5.8125 0l0 -13.28125l5.171875 0q1.34375 0 2.3125 0.328125q0.984375 0.3125 1.46875 0.875q0.90625 1.015625 0.90625 2.3125q0 1.5625 -0.984375 2.3125q-0.359375 0.265625 -0.5 0.34375q-0.125 0.0625 -0.46875 0.21875q1.234375 0.265625 1.953125 1.109375q0.734375 0.84375 0.734375 2.09375q0 1.390625 -0.9375 2.453125q-1.125 1.234375 -3.84375 1.234375zm-3.578125 -7.765625l2.859375 0q2.421875 0 2.421875 -1.65625q0 -0.953125 -0.59375 -1.359375q-0.578125 -0.421875 -1.8125 -0.421875l-2.875 0l0 3.4375zm0 5.6875l3.515625 0q1.234375 0 1.890625 -0.375q0.65625 -0.390625 0.65625 -1.484375q0 -1.765625 -2.828125 -1.765625l-3.234375 0l0 3.625zm17.702576 -2.5625l0 -5.46875l2.125 0l0 10.109375l-2.125 0l0 -1.84375q-0.515625 0.9375 -1.421875 1.46875q-0.90625 0.53125 -1.9375 0.53125q-1.71875 0 -2.78125 -1.046875q-1.046875 -1.046875 -1.046875 -3.015625l0 -6.203125l2.125 0l0 5.546875q0 2.796875 2.328125 2.796875q1.09375 0 1.90625 -0.734375q0.828125 -0.734375 0.828125 -2.140625zm7.598816 -3.75l0 5.125q0 0.71875 0.375 1.15625q0.390625 0.421875 1.0625 0.421875q0.6875 0 1.328125 -0.671875l0.875 1.5q-1.125 1.015625 -2.484375 1.015625q-1.359375 0 -2.328125 -0.9375q-0.953125 -0.953125 -0.953125 -2.546875l0 -5.0625l-1.265625 0l0 -1.71875l1.265625 0l0 -3.171875l2.125 0l0 3.171875l2.671875 0l0 1.71875l-2.671875 0zm7.7983093 0l0 5.125q0 0.71875 0.375 1.15625q0.390625 0.421875 1.0625 0.421875q0.6875 0 1.328125 -0.671875l0.875 1.5q-1.125 1.015625 -2.484375 1.015625q-1.359375 0 -2.328125 -0.9375q-0.953125 -0.953125 -0.953125 -2.546875l0 -5.0625l-1.265625 0l0 -1.71875l1.265625 0l0 -3.171875l2.125 0l0 3.171875l2.671875 0l0 1.71875l-2.671875 0zm7.5483093 5.71875q0.90625 0.921875 2.28125 0.921875q1.390625 0 2.296875 -0.921875q0.90625 -0.921875 0.90625 -2.375q0 -1.46875 -0.90625 -2.390625q-0.90625 -0.921875 -2.296875 -0.921875q-1.375 0 -2.28125 0.921875q-0.90625 0.921875 -0.90625 2.390625q0 1.453125 0.90625 2.375zm6.078125 1.3125q-1.515625 1.515625 -3.796875 1.515625q-2.28125 0 -3.796875 -1.515625q-1.515625 -1.515625 -1.515625 -3.6875q0 -2.1875 1.515625 -3.703125q1.515625 -1.515625 3.796875 -1.515625q2.28125 0 3.796875 1.515625q1.53125 1.515625 1.53125 3.703125q0 2.171875 -1.53125 3.6875zm5.8513794 -4.109375l0 5.46875l-2.140625 0l0 -10.109375l2.140625 0l0 1.84375q0.515625 -0.9375 1.40625 -1.46875q0.90625 -0.53125 1.953125 -0.53125q1.703125 0 2.75 1.046875q1.0625 1.046875 1.0625 3.03125l0 6.1875l-2.125 0l0 -5.546875q0 -2.796875 -2.3125 -2.796875q-1.109375 0 -1.921875 0.734375q-0.8125 0.734375 -0.8125 2.140625zm19.476257 1.75l2.96875 -9.5625l2.015625 0l2.953125 9.5625l3.34375 -9.5625l2.421875 0l-4.640625 13.28125l-2.21875 0l-2.796875 -9.09375l-0.15625 0l-2.78125 9.09375l-2.234375 0l-4.625 -13.28125l2.40625 0l3.34375 9.5625zm17.239258 3.71875l-2.140625 0l0 -10.109375l2.140625 0l0 10.109375zm-2.0 -12.109375q-0.40625 -0.40625 -0.40625 -0.953125q0 -0.5625 0.40625 -0.953125q0.40625 -0.40625 0.953125 -0.40625q0.546875 0 0.9375 0.40625q0.40625 0.390625 0.40625 0.953125q0 0.546875 -0.40625 0.953125q-0.390625 0.390625 -0.9375 0.390625q-0.546875 0 -0.953125 -0.390625zm9.096191 12.265625q-1.90625 0 -3.34375 -1.4375q-1.421875 -1.453125 -1.421875 -3.8125q0 -2.359375 1.453125 -3.765625q1.46875 -1.40625 3.484375 -1.40625q2.03125 0 3.265625 1.71875l0 -5.546875l2.140625 0l0 14.09375l-2.140625 0l0 -1.515625q-1.171875 1.671875 -3.4375 1.671875zm-2.640625 -5.15625q0 1.453125 0.9375 2.359375q0.9375 0.90625 2.1875 0.90625q1.25 0 2.125 -0.921875q0.875 -0.921875 0.875 -2.359375q0 -1.4375 -0.875 -2.40625q-0.875 -0.96875 -2.15625 -0.96875q-1.265625 0 -2.1875 0.96875q-0.90625 0.96875 -0.90625 2.421875zm13.677612 -3.390625l0 5.125q0 0.71875 0.375 1.15625q0.390625 0.421875 1.0625 0.421875q0.6875 0 1.328125 -0.671875l0.875 1.5q-1.125 1.015625 -2.484375 1.015625q-1.359375 0 -2.328125 -0.9375q-0.953125 -0.953125 -0.953125 -2.546875l0 -5.0625l-1.265625 0l0 -1.71875l1.265625 0l0 -3.171875l2.125 0l0 3.171875l2.671875 0l0 1.71875l-2.671875 0zm7.313965 2.921875l0 5.46875l-2.140625 0l0 -14.078125l2.140625 0l0 5.8125q0.453125 -0.9375 1.375 -1.46875q0.921875 -0.53125 1.984375 -0.53125q1.703125 0 2.75 1.046875q1.0625 1.046875 1.0625 3.03125l0 6.1875l-2.125 0l0 -5.546875q0 -2.796875 -2.3125 -2.796875q-1.109375 0 -1.921875 0.734375q-0.8125 0.734375 -0.8125 2.140625z" fill-rule="nonzero"></path><path fill="#000000" d="m453.25275 405.45502l4.828125 0l0 13.28125l-2.125 0l0 -11.28125l-2.703125 0l0 -2.0zm15.795532 -0.015625l0 2.03125l-5.609375 0l0 3.265625q0.84375 -0.453125 1.90625 -0.453125q1.859375 0 3.203125 1.125q1.359375 1.109375 1.359375 3.03125q0 1.921875 -1.40625 3.1875q-1.40625 1.265625 -3.46875 1.265625q-2.671875 0 -4.265625 -1.796875l1.1875 -1.625q0.15625 0.15625 0.40625 0.359375q0.265625 0.203125 1.0625 0.5625q0.796875 0.34375 1.75 0.34375q0.953125 0 1.71875 -0.5625q0.78125 -0.578125 0.78125 -1.65625q0 -1.09375 -0.828125 -1.6875q-0.8125 -0.609375 -2.078125 -0.609375q-1.265625 0 -2.40625 0.625l-0.953125 -1.03125l0 -6.375l7.640625 0zm5.2394714 7.828125l0 5.46875l-2.140625 0l0 -10.109375l2.140625 0l0 1.84375q0.453125 -0.9375 1.375 -1.46875q0.921875 -0.53125 1.984375 -0.53125q2.390625 0 3.25 1.984375q1.5 -1.984375 3.734375 -1.984375q1.71875 0 2.765625 1.046875q1.0625 1.046875 1.0625 3.03125l0 6.1875l-2.125 0l0 -5.546875q0 -2.796875 -2.328125 -2.796875q-1.078125 0 -1.890625 0.703125q-0.796875 0.6875 -0.84375 2.015625l0 5.625l-2.125 0l0 -5.546875q0 -1.4375 -0.515625 -2.109375q-0.515625 -0.6875 -1.625 -0.6875q-1.09375 0 -1.90625 0.734375q-0.8125 0.734375 -0.8125 2.140625zm18.91742 0l0 5.46875l-2.140625 0l0 -10.109375l2.140625 0l0 1.84375q0.453125 -0.9375 1.375 -1.46875q0.921875 -0.53125 1.984375 -0.53125q2.390625 0 3.25 1.984375q1.5 -1.984375 3.734375 -1.984375q1.71875 0 2.765625 1.046875q1.0625 1.046875 1.0625 3.03125l0 6.1875l-2.125 0l0 -5.546875q0 -2.796875 -2.328125 -2.796875q-1.078125 0 -1.890625 0.703125q-0.796875 0.6875 -0.84375 2.015625l0 5.625l-2.125 0l0 -5.546875q0 -1.4375 -0.515625 -2.109375q-0.515625 -0.6875 -1.625 -0.6875q-1.09375 0 -1.90625 0.734375q-0.8125 0.734375 -0.8125 2.140625z" fill-rule="nonzero"></path><path fill="#cfe2f3" d="m589.4843 352.64304l162.17322 0l0 96.346466l-162.17322 0z" fill-rule="nonzero"></path><path fill="#000000" d="m614.62805 396.73627l-5.8125 0l0 -13.28125l5.171875 0q1.34375 0 2.3125 0.328125q0.984375 0.3125 1.46875 0.875q0.90625 1.015625 0.90625 2.3125q0 1.5625 -0.984375 2.3125q-0.359375 0.265625 -0.5 0.34375q-0.125 0.0625 -0.46875 0.21875q1.234375 0.265625 1.953125 1.109375q0.734375 0.84375 0.734375 2.09375q0 1.390625 -0.9375 2.453125q-1.125 1.234375 -3.84375 1.234375zm-3.578125 -7.765625l2.859375 0q2.421875 0 2.421875 -1.65625q0 -0.953125 -0.59375 -1.359375q-0.578125 -0.421875 -1.8125 -0.421875l-2.875 0l0 3.4375zm0 5.6875l3.515625 0q1.234375 0 1.890625 -0.375q0.65625 -0.390625 0.65625 -1.484375q0 -1.765625 -2.828125 -1.765625l-3.234375 0l0 3.625zm17.702515 -2.5625l0 -5.46875l2.125 0l0 10.109375l-2.125 0l0 -1.84375q-0.515625 0.9375 -1.421875 1.46875q-0.90625 0.53125 -1.9375 0.53125q-1.71875 0 -2.78125 -1.046875q-1.046875 -1.046875 -1.046875 -3.015625l0 -6.203125l2.125 0l0 5.546875q0 2.796875 2.328125 2.796875q1.09375 0 1.90625 -0.734375q0.828125 -0.734375 0.828125 -2.140625zm7.598816 -3.75l0 5.125q0 0.71875 0.375 1.15625q0.390625 0.421875 1.0625 0.421875q0.6875 0 1.328125 -0.671875l0.875 1.5q-1.125 1.015625 -2.484375 1.015625q-1.359375 0 -2.328125 -0.9375q-0.953125 -0.953125 -0.953125 -2.546875l0 -5.0625l-1.265625 0l0 -1.71875l1.265625 0l0 -3.171875l2.125 0l0 3.171875l2.671875 0l0 1.71875l-2.671875 0zm7.79834 0l0 5.125q0 0.71875 0.375 1.15625q0.390625 0.421875 1.0625 0.421875q0.6875 0 1.328125 -0.671875l0.875 1.5q-1.125 1.015625 -2.484375 1.015625q-1.359375 0 -2.328125 -0.9375q-0.953125 -0.953125 -0.953125 -2.546875l0 -5.0625l-1.265625 0l0 -1.71875l1.265625 0l0 -3.171875l2.125 0l0 3.171875l2.671875 0l0 1.71875l-2.671875 0zm7.548279 5.71875q0.90625 0.921875 2.28125 0.921875q1.390625 0 2.296875 -0.921875q0.90625 -0.921875 0.90625 -2.375q0 -1.46875 -0.90625 -2.390625q-0.90625 -0.921875 -2.296875 -0.921875q-1.375 0 -2.28125 0.921875q-0.90625 0.921875 -0.90625 2.390625q0 1.453125 0.90625 2.375zm6.078125 1.3125q-1.515625 1.515625 -3.796875 1.515625q-2.28125 0 -3.796875 -1.515625q-1.515625 -1.515625 -1.515625 -3.6875q0 -2.1875 1.515625 -3.703125q1.515625 -1.515625 3.796875 -1.515625q2.28125 0 3.796875 1.515625q1.53125 1.515625 1.53125 3.703125q0 2.171875 -1.53125 3.6875zm5.8513794 -4.109375l0 5.46875l-2.140625 0l0 -10.109375l2.140625 0l0 1.84375q0.515625 -0.9375 1.40625 -1.46875q0.90625 -0.53125 1.953125 -0.53125q1.703125 0 2.75 1.046875q1.0625 1.046875 1.0625 3.03125l0 6.1875l-2.125 0l0 -5.546875q0 -2.796875 -2.3125 -2.796875q-1.109375 0 -1.921875 0.734375q-0.8125 0.734375 -0.8125 2.140625zm19.476257 1.75l2.96875 -9.5625l2.015625 0l2.953125 9.5625l3.34375 -9.5625l2.421875 0l-4.640625 13.28125l-2.21875 0l-2.796875 -9.09375l-0.15625 0l-2.78125 9.09375l-2.234375 0l-4.625 -13.28125l2.40625 0l3.34375 9.5625zm17.239258 3.71875l-2.140625 0l0 -10.109375l2.140625 0l0 10.109375zm-2.0 -12.109375q-0.40625 -0.40625 -0.40625 -0.953125q0 -0.5625 0.40625 -0.953125q0.40625 -0.40625 0.953125 -0.40625q0.546875 0 0.9375 0.40625q0.40625 0.390625 0.40625 0.953125q0 0.546875 -0.40625 0.953125q-0.390625 0.390625 -0.9375 0.390625q-0.546875 0 -0.953125 -0.390625zm9.096191 12.265625q-1.90625 0 -3.34375 -1.4375q-1.421875 -1.453125 -1.421875 -3.8125q0 -2.359375 1.453125 -3.765625q1.46875 -1.40625 3.484375 -1.40625q2.03125 0 3.265625 1.71875l0 -5.546875l2.140625 0l0 14.09375l-2.140625 0l0 -1.515625q-1.171875 1.671875 -3.4375 1.671875zm-2.640625 -5.15625q0 1.453125 0.9375 2.359375q0.9375 0.90625 2.1875 0.90625q1.25 0 2.125 -0.921875q0.875 -0.921875 0.875 -2.359375q0 -1.4375 -0.875 -2.40625q-0.875 -0.96875 -2.15625 -0.96875q-1.265625 0 -2.1875 0.96875q-0.90625 0.96875 -0.90625 2.421875zm13.677673 -3.390625l0 5.125q0 0.71875 0.375 1.15625q0.390625 0.421875 1.0625 0.421875q0.6875 0 1.328125 -0.671875l0.875 1.5q-1.125 1.015625 -2.484375 1.015625q-1.359375 0 -2.328125 -0.9375q-0.953125 -0.953125 -0.953125 -2.546875l0 -5.0625l-1.265625 0l0 -1.71875l1.265625 0l0 -3.171875l2.125 0l0 3.171875l2.671875 0l0 1.71875l-2.671875 0zm7.313904 2.921875l0 5.46875l-2.140625 0l0 -14.078125l2.140625 0l0 5.8125q0.453125 -0.9375 1.375 -1.46875q0.921875 -0.53125 1.984375 -0.53125q1.703125 0 2.75 1.046875q1.0625 1.046875 1.0625 3.03125l0 6.1875l-2.125 0l0 -5.546875q0 -2.796875 -2.3125 -2.796875q-1.109375 0 -1.921875 0.734375q-0.8125 0.734375 -0.8125 2.140625z" fill-rule="nonzero"></path><path fill="#000000" d="m644.86646 412.78314q1.359375 -1.359375 1.921875 -2.140625q0.578125 -0.78125 0.578125 -1.578125q0 -0.796875 -0.609375 -1.359375q-0.609375 -0.5625 -1.546875 -0.5625q-1.625 0 -2.71875 1.671875l-1.796875 -1.046875q0.875 -1.3125 1.921875 -1.96875q1.0625 -0.671875 2.71875 -0.671875q1.671875 0 2.921875 1.0625q1.25 1.046875 1.25 2.875q0 1.03125 -0.53125 1.96875q-0.53125 0.921875 -1.953125 2.390625l-3.125 3.171875l6.03125 0l0 2.140625l-9.078125 0l0 -1.90625l4.015625 -4.046875zm9.926086 -4.359375q-0.78125 1.359375 -0.78125 3.59375q0 2.21875 0.78125 3.59375q0.796875 1.359375 2.46875 1.359375q1.671875 0 2.4375 -1.359375q0.78125 -1.359375 0.78125 -3.59375q0 -2.25 -0.78125 -3.609375q-0.765625 -1.359375 -2.4375 -1.359375q-1.671875 0 -2.46875 1.375zm-1.59375 8.59375q-1.34375 -1.875 -1.34375 -5.0q0 -3.140625 1.34375 -5.015625q1.34375 -1.875 4.0625 -1.875q2.71875 0 4.0625 1.875q1.359375 1.875 1.359375 5.015625q0 3.125 -1.359375 5.0q-1.34375 1.875 -4.0625 1.875q-2.71875 0 -4.0625 -1.875zm14.038635 -3.75l0 5.46875l-2.140625 0l0 -10.109375l2.140625 0l0 1.84375q0.453125 -0.9375 1.375 -1.46875q0.921875 -0.53125 1.984375 -0.53125q2.390625 0 3.25 1.984375q1.5 -1.984375 3.734375 -1.984375q1.71875 0 2.765625 1.046875q1.0625 1.046875 1.0625 3.03125l0 6.1875l-2.125 0l0 -5.546875q0 -2.796875 -2.328125 -2.796875q-1.078125 0 -1.890625 0.703125q-0.796875 0.6875 -0.84375 2.015625l0 5.625l-2.125 0l0 -5.546875q0 -1.4375 -0.515625 -2.109375q-0.515625 -0.6875 -1.625 -0.6875q-1.09375 0 -1.90625 0.734375q-0.8125 0.734375 -0.8125 2.140625zm18.91742 0l0 5.46875l-2.140625 0l0 -10.109375l2.140625 0l0 1.84375q0.453125 -0.9375 1.375 -1.46875q0.921875 -0.53125 1.984375 -0.53125q2.390625 0 3.25 1.984375q1.5 -1.984375 3.734375 -1.984375q1.71875 0 2.765625 1.046875q1.0625 1.046875 1.0625 3.03125l0 6.1875l-2.125 0l0 -5.546875q0 -2.796875 -2.328125 -2.796875q-1.078125 0 -1.890625 0.703125q-0.796875 0.6875 -0.84375 2.015625l0 5.625l-2.125 0l0 -5.546875q0 -1.4375 -0.515625 -2.109375q-0.515625 -0.6875 -1.625 -0.6875q-1.09375 0 -1.90625 0.734375q-0.8125 0.734375 -0.8125 2.140625z" fill-rule="nonzero"></path><path fill="#cfe2f3" d="m209.49875 352.64304l162.17322 0l0 96.346466l-162.17322 0z" fill-rule="nonzero"></path><path fill="#000000" d="m234.64246 396.73627l-5.8125 0l0 -13.28125l5.171875 0q1.34375 0 2.3125 0.328125q0.984375 0.3125 1.46875 0.875q0.90625 1.015625 0.90625 2.3125q0 1.5625 -0.984375 2.3125q-0.359375 0.265625 -0.5 0.34375q-0.125 0.0625 -0.46875 0.21875q1.234375 0.265625 1.953125 1.109375q0.734375 0.84375 0.734375 2.09375q0 1.390625 -0.9375 2.453125q-1.125 1.234375 -3.84375 1.234375zm-3.578125 -7.765625l2.859375 0q2.421875 0 2.421875 -1.65625q0 -0.953125 -0.59375 -1.359375q-0.578125 -0.421875 -1.8125 -0.421875l-2.875 0l0 3.4375zm0 5.6875l3.515625 0q1.234375 0 1.890625 -0.375q0.65625 -0.390625 0.65625 -1.484375q0 -1.765625 -2.828125 -1.765625l-3.234375 0l0 3.625zm17.70256 -2.5625l0 -5.46875l2.125 0l0 10.109375l-2.125 0l0 -1.84375q-0.515625 0.9375 -1.421875 1.46875q-0.90625 0.53125 -1.9375 0.53125q-1.71875 0 -2.78125 -1.046875q-1.046875 -1.046875 -1.046875 -3.015625l0 -6.203125l2.125 0l0 5.546875q0 2.796875 2.328125 2.796875q1.09375 0 1.90625 -0.734375q0.828125 -0.734375 0.828125 -2.140625zm7.5988007 -3.75l0 5.125q0 0.71875 0.375 1.15625q0.390625 0.421875 1.0625 0.421875q0.6875 0 1.328125 -0.671875l0.875 1.5q-1.125 1.015625 -2.484375 1.015625q-1.359375 0 -2.3281097 -0.9375q-0.953125 -0.953125 -0.953125 -2.546875l0 -5.0625l-1.265625 0l0 -1.71875l1.265625 0l0 -3.171875l2.1249847 0l0 3.171875l2.671875 0l0 1.71875l-2.671875 0zm7.7983093 0l0 5.125q0 0.71875 0.375 1.15625q0.390625 0.421875 1.0625 0.421875q0.6875 0 1.328125 -0.671875l0.875 1.5q-1.125 1.015625 -2.484375 1.015625q-1.359375 0 -2.328125 -0.9375q-0.953125 -0.953125 -0.953125 -2.546875l0 -5.0625l-1.265625 0l0 -1.71875l1.265625 0l0 -3.171875l2.125 0l0 3.171875l2.671875 0l0 1.71875l-2.671875 0zm7.5483093 5.71875q0.90625 0.921875 2.28125 0.921875q1.390625 0 2.296875 -0.921875q0.90625 -0.921875 0.90625 -2.375q0 -1.46875 -0.90625 -2.390625q-0.90625 -0.921875 -2.296875 -0.921875q-1.375 0 -2.28125 0.921875q-0.90625 0.921875 -0.90625 2.390625q0 1.453125 0.90625 2.375zm6.078125 1.3125q-1.515625 1.515625 -3.796875 1.515625q-2.28125 0 -3.796875 -1.515625q-1.515625 -1.515625 -1.515625 -3.6875q0 -2.1875 1.515625 -3.703125q1.515625 -1.515625 3.796875 -1.515625q2.28125 0 3.796875 1.515625q1.53125 1.515625 1.53125 3.703125q0 2.171875 -1.53125 3.6875zm5.8513794 -4.109375l0 5.46875l-2.140625 0l0 -10.109375l2.140625 0l0 1.84375q0.515625 -0.9375 1.40625 -1.46875q0.90625 -0.53125 1.953125 -0.53125q1.703125 0 2.75 1.046875q1.0625 1.046875 1.0625 3.03125l0 6.1875l-2.125 0l0 -5.546875q0 -2.796875 -2.3125 -2.796875q-1.109375 0 -1.921875 0.734375q-0.8125 0.734375 -0.8125 2.140625zm19.476257 1.75l2.96875 -9.5625l2.015625 0l2.953125 9.5625l3.34375 -9.5625l2.421875 0l-4.640625 13.28125l-2.21875 0l-2.796875 -9.09375l-0.15625 0l-2.78125 9.09375l-2.234375 0l-4.625 -13.28125l2.40625 0l3.34375 9.5625zm17.239258 3.71875l-2.140625 0l0 -10.109375l2.140625 0l0 10.109375zm-2.0 -12.109375q-0.40625 -0.40625 -0.40625 -0.953125q0 -0.5625 0.40625 -0.953125q0.40625 -0.40625 0.953125 -0.40625q0.546875 0 0.9375 0.40625q0.40625 0.390625 0.40625 0.953125q0 0.546875 -0.40625 0.953125q-0.390625 0.390625 -0.9375 0.390625q-0.546875 0 -0.953125 -0.390625zm9.096191 12.265625q-1.90625 0 -3.34375 -1.4375q-1.421875 -1.453125 -1.421875 -3.8125q0 -2.359375 1.453125 -3.765625q1.46875 -1.40625 3.484375 -1.40625q2.03125 0 3.265625 1.71875l0 -5.546875l2.140625 0l0 14.09375l-2.140625 0l0 -1.515625q-1.171875 1.671875 -3.4375 1.671875zm-2.640625 -5.15625q0 1.453125 0.9375 2.359375q0.9375 0.90625 2.1875 0.90625q1.25 0 2.125 -0.921875q0.875 -0.921875 0.875 -2.359375q0 -1.4375 -0.875 -2.40625q-0.875 -0.96875 -2.15625 -0.96875q-1.265625 0 -2.1875 0.96875q-0.90625 0.96875 -0.90625 2.421875zm13.677643 -3.390625l0 5.125q0 0.71875 0.375 1.15625q0.390625 0.421875 1.0625 0.421875q0.6875 0 1.328125 -0.671875l0.875 1.5q-1.125 1.015625 -2.484375 1.015625q-1.359375 0 -2.328125 -0.9375q-0.953125 -0.953125 -0.953125 -2.546875l0 -5.0625l-1.265625 0l0 -1.71875l1.265625 0l0 -3.171875l2.125 0l0 3.171875l2.671875 0l0 1.71875l-2.671875 0zm7.3139343 2.921875l0 5.46875l-2.140625 0l0 -14.078125l2.140625 0l0 5.8125q0.453125 -0.9375 1.375 -1.46875q0.921875 -0.53125 1.984375 -0.53125q1.703125 0 2.75 1.046875q1.0625 1.046875 1.0625 3.03125l0 6.1875l-2.125 0l0 -5.546875q0 -2.796875 -2.3125 -2.796875q-1.109375 0 -1.921875 0.734375q-0.8125 0.734375 -0.8125 2.140625z" fill-rule="nonzero"></path><path fill="#000000" d="m262.24304 405.45502l4.828125 0l0 13.28125l-2.125 0l0 -11.28125l-2.703125 0l0 -2.0zm10.623657 2.96875q-0.78125 1.359375 -0.78125 3.59375q0 2.21875 0.78125 3.59375q0.796875 1.359375 2.46875 1.359375q1.671875 0 2.4375 -1.359375q0.78125 -1.359375 0.78125 -3.59375q0 -2.25 -0.78125 -3.609375q-0.765625 -1.359375 -2.4375 -1.359375q-1.671875 0 -2.46875 1.375zm-1.59375 8.59375q-1.34375 -1.875 -1.34375 -5.0q0 -3.140625 1.34375 -5.015625q1.34375 -1.875 4.0625 -1.875q2.71875 0 4.0625 1.875q1.359375 1.875 1.359375 5.015625q0 3.125 -1.359375 5.0q-1.34375 1.875 -4.0625 1.875q-2.71875 0 -4.0625 -1.875zm14.038635 -3.75l0 5.46875l-2.140625 0l0 -10.109375l2.140625 0l0 1.84375q0.453125 -0.9375 1.375 -1.46875q0.921875 -0.53125 1.984375 -0.53125q2.390625 0 3.25 1.984375q1.5 -1.984375 3.734375 -1.984375q1.71875 0 2.765625 1.046875q1.0625 1.046875 1.0625 3.03125l0 6.1875l-2.125 0l0 -5.546875q0 -2.796875 -2.328125 -2.796875q-1.078125 0 -1.890625 0.703125q-0.796875 0.6875 -0.84375 2.015625l0 5.625l-2.125 0l0 -5.546875q0 -1.4375 -0.515625 -2.109375q-0.515625 -0.6875 -1.625 -0.6875q-1.09375 0 -1.90625 0.734375q-0.8125 0.734375 -0.8125 2.140625zm18.91742 0l0 5.46875l-2.140625 0l0 -10.109375l2.140625 0l0 1.84375q0.453125 -0.9375 1.375 -1.46875q0.921875 -0.53125 1.984375 -0.53125q2.390625 0 3.25 1.984375q1.5 -1.984375 3.734375 -1.984375q1.71875 0 2.765625 1.046875q1.0625 1.046875 1.0625 3.03125l0 6.1875l-2.125 0l0 -5.546875q0 -2.796875 -2.328125 -2.796875q-1.078125 0 -1.890625 0.703125q-0.796875 0.6875 -0.84375 2.015625l0 5.625l-2.125 0l0 -5.546875q0 -1.4375 -0.515625 -2.109375q-0.515625 -0.6875 -1.625 -0.6875q-1.09375 0 -1.90625 0.734375q-0.8125 0.734375 -0.8125 2.140625z" fill-rule="nonzero"></path><path fill="#cfe2f3" d="m779.47644 352.64304l162.17322 0l0 96.346466l-162.17322 0z" fill-rule="nonzero"></path><path fill="#000000" d="m804.6201 396.73627l-5.8125 0l0 -13.28125l5.171875 0q1.34375 0 2.3125 0.328125q0.984375 0.3125 1.46875 0.875q0.90625 1.015625 0.90625 2.3125q0 1.5625 -0.984375 2.3125q-0.359375 0.265625 -0.5 0.34375q-0.125 0.0625 -0.46875 0.21875q1.234375 0.265625 1.953125 1.109375q0.734375 0.84375 0.734375 2.09375q0 1.390625 -0.9375 2.453125q-1.125 1.234375 -3.84375 1.234375zm-3.578125 -7.765625l2.859375 0q2.421875 0 2.421875 -1.65625q0 -0.953125 -0.59375 -1.359375q-0.578125 -0.421875 -1.8125 -0.421875l-2.875 0l0 3.4375zm0 5.6875l3.515625 0q1.234375 0 1.890625 -0.375q0.65625 -0.390625 0.65625 -1.484375q0 -1.765625 -2.828125 -1.765625l-3.234375 0l0 3.625zm17.702576 -2.5625l0 -5.46875l2.125 0l0 10.109375l-2.125 0l0 -1.84375q-0.515625 0.9375 -1.421875 1.46875q-0.90625 0.53125 -1.9375 0.53125q-1.71875 0 -2.78125 -1.046875q-1.046875 -1.046875 -1.046875 -3.015625l0 -6.203125l2.125 0l0 5.546875q0 2.796875 2.328125 2.796875q1.09375 0 1.90625 -0.734375q0.828125 -0.734375 0.828125 -2.140625zm7.598816 -3.75l0 5.125q0 0.71875 0.375 1.15625q0.390625 0.421875 1.0625 0.421875q0.6875 0 1.328125 -0.671875l0.875 1.5q-1.125 1.015625 -2.484375 1.015625q-1.359375 0 -2.328125 -0.9375q-0.953125 -0.953125 -0.953125 -2.546875l0 -5.0625l-1.265625 0l0 -1.71875l1.265625 0l0 -3.171875l2.125 0l0 3.171875l2.671875 0l0 1.71875l-2.671875 0zm7.79834 0l0 5.125q0 0.71875 0.375 1.15625q0.390625 0.421875 1.0625 0.421875q0.6875 0 1.328125 -0.671875l0.875 1.5q-1.125 1.015625 -2.484375 1.015625q-1.359375 0 -2.328125 -0.9375q-0.953125 -0.953125 -0.953125 -2.546875l0 -5.0625l-1.265625 0l0 -1.71875l1.265625 0l0 -3.171875l2.125 0l0 3.171875l2.671875 0l0 1.71875l-2.671875 0zm7.548279 5.71875q0.90625 0.921875 2.28125 0.921875q1.390625 0 2.296875 -0.921875q0.90625 -0.921875 0.90625 -2.375q0 -1.46875 -0.90625 -2.390625q-0.90625 -0.921875 -2.296875 -0.921875q-1.375 0 -2.28125 0.921875q-0.90625 0.921875 -0.90625 2.390625q0 1.453125 0.90625 2.375zm6.078125 1.3125q-1.515625 1.515625 -3.796875 1.515625q-2.28125 0 -3.796875 -1.515625q-1.515625 -1.515625 -1.515625 -3.6875q0 -2.1875 1.515625 -3.703125q1.515625 -1.515625 3.796875 -1.515625q2.28125 0 3.796875 1.515625q1.53125 1.515625 1.53125 3.703125q0 2.171875 -1.53125 3.6875zm5.8513794 -4.109375l0 5.46875l-2.140625 0l0 -10.109375l2.140625 0l0 1.84375q0.515625 -0.9375 1.40625 -1.46875q0.90625 -0.53125 1.953125 -0.53125q1.703125 0 2.75 1.046875q1.0625 1.046875 1.0625 3.03125l0 6.1875l-2.125 0l0 -5.546875q0 -2.796875 -2.3125 -2.796875q-1.109375 0 -1.921875 0.734375q-0.8125 0.734375 -0.8125 2.140625zm19.476257 1.75l2.96875 -9.5625l2.015625 0l2.953125 9.5625l3.34375 -9.5625l2.421875 0l-4.640625 13.28125l-2.21875 0l-2.796875 -9.09375l-0.15625 0l-2.78125 9.09375l-2.234375 0l-4.625 -13.28125l2.40625 0l3.34375 9.5625zm17.239258 3.71875l-2.140625 0l0 -10.109375l2.140625 0l0 10.109375zm-2.0 -12.109375q-0.40625 -0.40625 -0.40625 -0.953125q0 -0.5625 0.40625 -0.953125q0.40625 -0.40625 0.953125 -0.40625q0.546875 0 0.9375 0.40625q0.40625 0.390625 0.40625 0.953125q0 0.546875 -0.40625 0.953125q-0.390625 0.390625 -0.9375 0.390625q-0.546875 0 -0.953125 -0.390625zm9.096191 12.265625q-1.90625 0 -3.34375 -1.4375q-1.421875 -1.453125 -1.421875 -3.8125q0 -2.359375 1.453125 -3.765625q1.46875 -1.40625 3.484375 -1.40625q2.03125 0 3.265625 1.71875l0 -5.546875l2.140625 0l0 14.09375l-2.140625 0l0 -1.515625q-1.171875 1.671875 -3.4375 1.671875zm-2.640625 -5.15625q0 1.453125 0.9375 2.359375q0.9375 0.90625 2.1875 0.90625q1.25 0 2.125 -0.921875q0.875 -0.921875 0.875 -2.359375q0 -1.4375 -0.875 -2.40625q-0.875 -0.96875 -2.15625 -0.96875q-1.265625 0 -2.1875 0.96875q-0.90625 0.96875 -0.90625 2.421875zm13.677673 -3.390625l0 5.125q0 0.71875 0.375 1.15625q0.390625 0.421875 1.0625 0.421875q0.6875 0 1.328125 -0.671875l0.875 1.5q-1.125 1.015625 -2.484375 1.015625q-1.359375 0 -2.328186 -0.9375q-0.953125 -0.953125 -0.953125 -2.546875l0 -5.0625l-1.265625 0l0 -1.71875l1.265625 0l0 -3.171875l2.125061 0l0 3.171875l2.671875 0l0 1.71875l-2.671875 0zm7.313904 2.921875l0 5.46875l-2.140625 0l0 -14.078125l2.140625 0l0 5.8125q0.453125 -0.9375 1.375 -1.46875q0.921875 -0.53125 1.984375 -0.53125q1.703125 0 2.75 1.046875q1.0625 1.046875 1.0625 3.03125l0 6.1875l-2.125 0l0 -5.546875q0 -2.796875 -2.3125 -2.796875q-1.109375 0 -1.921875 0.734375q-0.8125 0.734375 -0.8125 2.140625z" fill-rule="nonzero"></path><path fill="#000000" d="m835.87537 412.78314q1.359375 -1.359375 1.921875 -2.140625q0.578125 -0.78125 0.578125 -1.578125q0 -0.796875 -0.609375 -1.359375q-0.609375 -0.5625 -1.546875 -0.5625q-1.625 0 -2.71875 1.671875l-1.796875 -1.046875q0.875 -1.3125 1.921875 -1.96875q1.0625 -0.671875 2.71875 -0.671875q1.671875 0 2.921875 1.0625q1.25 1.046875 1.25 2.875q0 1.03125 -0.53125 1.96875q-0.53125 0.921875 -1.953125 2.390625l-3.125 3.171875l6.03125 0l0 2.140625l-9.078125 0l0 -1.90625l4.015625 -4.046875zm15.0979 -7.34375l0 2.03125l-5.609375 0l0 3.265625q0.84375 -0.453125 1.90625 -0.453125q1.859375 0 3.203125 1.125q1.359375 1.109375 1.359375 3.03125q0 1.921875 -1.40625 3.1875q-1.40625 1.265625 -3.46875 1.265625q-2.671875 0 -4.265625 -1.796875l1.1875 -1.625q0.15625 0.15625 0.40625 0.359375q0.265625 0.203125 1.0625 0.5625q0.796875 0.34375 1.75 0.34375q0.953125 0 1.71875 -0.5625q0.78125 -0.578125 0.78125 -1.65625q0 -1.09375 -0.828125 -1.6875q-0.8125 -0.609375 -2.078125 -0.609375q-1.265625 0 -2.40625 0.625l-0.953125 -1.03125l0 -6.375l7.640625 0zm5.239502 7.828125l0 5.46875l-2.140625 0l0 -10.109375l2.140625 0l0 1.84375q0.453125 -0.9375 1.375 -1.46875q0.921875 -0.53125 1.984375 -0.53125q2.390625 0 3.25 1.984375q1.5 -1.984375 3.734375 -1.984375q1.71875 0 2.765625 1.046875q1.0625 1.046875 1.0625 3.03125l0 6.1875l-2.125 0l0 -5.546875q0 -2.796875 -2.328125 -2.796875q-1.078125 0 -1.890625 0.703125q-0.796875 0.6875 -0.84375 2.015625l0 5.625l-2.125 0l0 -5.546875q0 -1.4375 -0.515625 -2.109375q-0.515625 -0.6875 -1.625 -0.6875q-1.09375 0 -1.90625 0.734375q-0.8125 0.734375 -0.8125 2.140625zm18.91742 0l0 5.46875l-2.140625 0l0 -10.109375l2.140625 0l0 1.84375q0.453125 -0.9375 1.375 -1.46875q0.921875 -0.53125 1.984375 -0.53125q2.390625 0 3.25 1.984375q1.5 -1.984375 3.734375 -1.984375q1.71875 0 2.765625 1.046875q1.0625 1.046875 1.0625 3.03125l0 6.1875l-2.125 0l0 -5.546875q0 -2.796875 -2.328125 -2.796875q-1.078125 0 -1.890625 0.703125q-0.796875 0.6875 -0.84375 2.015625l0 5.625l-2.125 0l0 -5.546875q0 -1.4375 -0.515625 -2.109375q-0.515625 -0.6875 -1.625 -0.6875q-1.09375 0 -1.90625 0.734375q-0.8125 0.734375 -0.8125 2.140625z" fill-rule="nonzero"></path></g></svg>

